<?xml version="1.0" encoding="UTF-8" standalone="no"?>
<svg
   xmlns:dc="http://purl.org/dc/elements/1.1/"
   xmlns:cc="http://creativecommons.org/ns#"
   xmlns:rdf="http://www.w3.org/1999/02/22-rdf-syntax-ns#"
   xmlns:svg="http://www.w3.org/2000/svg"
   xmlns="http://www.w3.org/2000/svg"
   xmlns:sodipodi="http://sodipodi.sourceforge.net/DTD/sodipodi-0.dtd"
   xmlns:inkscape="http://www.inkscape.org/namespaces/inkscape"
   inkscape:version="1.0 (4035a4f, 2020-05-01)"
   sodipodi:docname="Circuit_Red_Bull_Ring.svg"
   id="svg154"
   version="1.1"
   viewBox="0 0 680.31 510.24"
   stroke-miterlimit="10"
   clip-rule="evenodd">
  <metadata
     id="metadata158">
    <rdf:RDF>
      <cc:Work
         rdf:about="">
        <dc:format>image/svg+xml</dc:format>
        <dc:type
           rdf:resource="http://purl.org/dc/dcmitype/StillImage" />
      </cc:Work>
    </rdf:RDF>
  </metadata>
  <sodipodi:namedview
     inkscape:current-layer="svg154"
     inkscape:window-maximized="1"
     inkscape:window-y="25"
     inkscape:window-x="0"
     inkscape:cy="239.68849"
     inkscape:cx="355.52906"
     inkscape:zoom="1.3415434"
     showgrid="false"
     id="namedview156"
     inkscape:window-height="847"
     inkscape:window-width="1440"
     inkscape:pageshadow="2"
     inkscape:pageopacity="0"
     guidetolerance="10"
     gridtolerance="10"
     objecttolerance="10"
     borderopacity="1"
     bordercolor="#666666"
     pagecolor="#ffffff" />
  <desc
     id="desc10">SVG generated by Lineform</desc>
  <defs
     id="defs12" />
  <g
     transform="translate(1.529955,1.529955)"
     id="g152">
    <path
       id="path14"
       fill="none"
       stroke-width="7.34"
       stroke="#000000"
       d="m 567.8,358.72 c -53.51,13.54 -107.02,27.08 -160.52,40.62 -35.64,8.84 -71.28,17.68 -106.91,26.52 -4.14,0.89 -8.94,2.64 -12.83,0.72 0,0 -5.38,-9.78 -8.59,-15.72 0,0 -8.42,-14.01 -28.68,-39.41 L 227.41,339.32 150.03,185.06 66.76,89.44 c 0,0 -12.1,-11.72 5.12,-15.45 l 71.9,-1.78 50.21,9.54 74.62,13.62 68.35,6.9 71,5.47 c 0,0 17.91,3.77 10.13,21.5 0,0 -20.97,41.77 -67.85,47.33 0,0 -11.52,4.11 -62.17,-5.78 0,0 -35.54,-11.84 -52.46,-3.75 0,0 -23.63,9.48 -22.24,35.47 0,0 0.55,6.14 4.24,13.73 l 34.09,63.28 c 0,0 20.22,23.16 47.47,5.5 l 33.29,-34.78 c 0,0 16.16,-11.77 37.62,-13.2 l 166.05,0.37 39.91,0.02 c 0,0 15.67,0.35 21.71,14.72 l 18.32,69.16 c 0,0 4.4,12.13 -8.65,18.49 z m 0,0" />
    <path
       id="path16"
       fill="none"
       stroke-width="4.04"
       stroke="#000000"
       d="m 607.54,286.48 -2.58,31.69 c 0,0 0.35,5.92 -6.54,11.56 0,0 -16.75,11.46 -27.2,16.04 l -106.36,25.93 -72.82,19.23 -85,21.35 -5.52,1.68 c 0,0 -10.41,0.51 -17.01,-12.01 0,0 -6.32,-9.86 -15.95,-16.59 L 253.48,374.7" />
    <text
       id="text20"
       transform="scale(0.887623)"
       fill="#999999"
       font-size="18px"
       font-family="'Liberation Sans'"
       xml:space="preserve">             <tspan
   id="tspan18"
   y="536.40997"
   x="241.02">Niki Lauda Kurve</tspan>        </text>
    <text
       id="text24"
       transform="scale(0.887623)"
       fill="#999999"
       font-size="18px"
       font-family="'Liberation Sans'"
       xml:space="preserve">             <tspan
   id="tspan22"
   y="148.39999"
   x="485.13">Schlossgold</tspan>        </text>
    <text
       id="text28"
       transform="scale(0.887623)"
       fill="#999999"
       font-size="18px"
       font-family="'Liberation Sans'"
       xml:space="preserve">             <tspan
   id="tspan26"
   y="166.45"
   x="232.08">Rauch</tspan>        </text>
    <text
       id="text32"
       transform="scale(0.887623)"
       fill="#999999"
       font-size="18px"
       font-family="'Liberation Sans'"
       xml:space="preserve">             <tspan
   id="tspan30"
   y="363.70999"
   x="330.5">Würth Kurve</tspan>        </text>
    <text
       id="text36"
       transform="scale(0.887623)"
       fill="#999999"
       font-size="18px"
       font-family="'Liberation Sans'"
       xml:space="preserve">             <tspan
   id="tspan34"
   y="237.88"
   x="634.13">Rindt</tspan>        </text>
    <path
       id="path38"
       fill="#ffffff"
       fill-rule="non-zero"
       d="m 292.88,427.55 c -0.06,1.54 -1.37,2.75 -2.92,2.69 -1.56,-0.06 -2.77,-1.37 -2.71,-2.91 0.06,-1.55 1.37,-2.75 2.92,-2.69 1.56,0.06 2.78,1.36 2.71,2.91" />
    <path
       id="path40"
       fill="none"
       stroke-linejoin="bevel"
       stroke-linecap="square"
       stroke-width="0.55"
       stroke="#000000"
       d="m 571.29,359.25 c -0.06,1.54 -1.37,2.75 -2.93,2.69 -1.56,-0.06 -2.77,-1.37 -2.71,-2.91 0.06,-1.55 1.37,-2.75 2.93,-2.69 1.55,0.06 2.77,1.36 2.71,2.91" />
    <path
       id="path42"
       fill="#ffffff"
       fill-rule="non-zero"
       d="m 65.52,80.2 c -0.06,1.55 -1.37,2.76 -2.92,2.69 -1.56,-0.06 -2.77,-1.36 -2.71,-2.91 0.06,-1.54 1.37,-2.75 2.92,-2.69 1.56,0.07 2.77,1.37 2.71,2.91" />
    <path
       id="path44"
       fill="none"
       stroke-linejoin="bevel"
       stroke-linecap="square"
       stroke-width="0.55"
       stroke="#000000"
       d="m 65.52,80.2 c -0.06,1.55 -1.37,2.76 -2.92,2.69 -1.56,-0.06 -2.77,-1.36 -2.71,-2.91 0.06,-1.54 1.37,-2.75 2.92,-2.69 1.56,0.07 2.77,1.37 2.71,2.91" />
    <path
       id="path46"
       stroke-linejoin="bevel"
       stroke-linecap="square"
       stroke-width="0.55"
       stroke="#000000"
       fill="#ffffff"
       d="m 419.66,113.09 c -0.07,1.55 -1.38,2.75 -2.93,2.69 -1.56,-0.05 -2.77,-1.36 -2.71,-2.91 0.06,-1.54 1.37,-2.75 2.93,-2.69 1.56,0.06 2.77,1.37 2.71,2.91" />
    <text
       id="text52"
       transform="scale(0.887623)"
       fill="#999999"
       font-size="18px"
       font-family="'Liberation Sans'"
       xml:space="preserve">             <tspan
   id="tspan48"
   y="423"
   x="669.63">Red Bull</tspan>             <tspan
   id="tspan50"
   y="444"
   x="684.64001">Mobile</tspan>        </text>
    <text
       id="text56"
       transform="scale(0.887623)"
       fill="#999999"
       font-size="18px"
       font-family="'Liberation Sans'"
       xml:space="preserve">             <tspan
   id="tspan54"
   y="66.379997"
   x="34.849998">Remus</tspan>        </text>
    <circle
       r="10.15"
       id="ellipse58"
       stroke-width="0.59"
       stroke="#000000"
       fill="#ffffff"
       cy="445.25"
       cx="274.72" />
    <text
       id="text62"
       transform="scale(0.948888)"
       font-size="12px"
       font-family="'Liberation Sans'"
       xml:space="preserve">             <tspan
   id="tspan60"
   y="472.92001"
   x="286.01999">1</tspan>        </text>
    <path
       id="path64"
       fill="#ff0000"
       fill-rule="non-zero"
       d="m 489.38,389.94 2.41,11.14 -21.46,-1.05 z m 0,0" />
    <g
       id="g96">
      <path
         id="path66"
         fill="#000000"
         fill-rule="non-zero"
         d="m 456.77,369.06 1.81,7.18 -7.18,1.82 -1.81,-7.18 z m 0,0" />
      <path
         id="path68"
         fill="#ffffff"
         fill-rule="non-zero"
         d="m 449.59,370.88 1.81,7.18 -7.18,1.81 -1.81,-7.18 z m 0,0" />
      <path
         id="path70"
         fill="#000000"
         fill-rule="non-zero"
         d="m 442.41,372.69 1.81,7.18 -7.18,1.82 -1.81,-7.18 z m 0,0" />
      <path
         id="path72"
         fill="#ffffff"
         fill-rule="non-zero"
         d="m 458.57,376.18 1.81,7.18 -7.18,1.82 -1.81,-7.18 z m 0,0" />
      <path
         id="path74"
         fill="#ffffff"
         fill-rule="non-zero"
         d="m 444.21,379.81 1.81,7.18 -7.18,1.81 -1.81,-7.18 z m 0,0" />
      <path
         id="path76"
         fill="#000000"
         fill-rule="non-zero"
         d="m 451.37,377.93 1.82,7.18 -7.18,1.82 -1.82,-7.18 z m 0,0" />
      <path
         id="path78"
         fill="#000000"
         fill-rule="non-zero"
         d="m 460.37,383.3 1.81,7.18 -7.18,1.81 -1.81,-7.18 z m 0,0" />
      <path
         id="path80"
         fill="#ffffff"
         fill-rule="non-zero"
         d="m 453.19,385.11 1.81,7.18 -7.18,1.82 -1.81,-7.18 z m 0,0" />
      <path
         id="path82"
         fill="#000000"
         fill-rule="non-zero"
         d="m 446.01,386.93 1.81,7.18 -7.18,1.81 -1.82,-7.18 z m 0,0" />
      <path
         id="path84"
         fill="#ffffff"
         fill-rule="non-zero"
         d="m 462.16,390.42 1.82,7.18 -7.18,1.81 -1.82,-7.18 z m 0,0" />
      <path
         id="path86"
         fill="#ffffff"
         fill-rule="non-zero"
         d="m 447.8,394.04 1.82,7.18 -7.18,1.82 -1.82,-7.18 z m 0,0" />
      <path
         id="path88"
         fill="#000000"
         fill-rule="non-zero"
         d="m 454.97,392.17 1.81,7.18 -7.18,1.81 -1.81,-7.18 z m 0,0" />
      <path
         id="path90"
         fill="#000000"
         fill-rule="non-zero"
         d="m 464.18,397.34 1.82,7.18 -7.18,1.82 -1.82,-7.18 z m 0,0" />
      <path
         id="path92"
         fill="#ffffff"
         fill-rule="non-zero"
         d="m 457,399.16 1.82,7.18 -7.18,1.81 -1.82,-7.18 z m 0,0" />
      <path
         id="path94"
         fill="#000000"
         fill-rule="non-zero"
         d="m 449.82,400.97 1.82,7.18 -7.19,1.82 -1.81,-7.18 z m 0,0" />
    </g>
    <path
       id="path98"
       fill="#ff0000"
       fill-rule="non-zero"
       d="m 235.52,236.28 9.94,-5.56 5.27,20.83 z m 0,0" />
    <circle
       r="10.15"
       id="ellipse100"
       stroke-width="0.59"
       stroke="#000000"
       fill="#ffffff"
       cy="174.49716"
       cx="164.85143" />
    <text
       id="text104"
       transform="scale(0.948888)"
       font-size="12px"
       font-family="'Liberation Sans'"
       xml:space="preserve">             <tspan
   id="tspan102"
   y="85.989998"
   x="42.049999">2</tspan>        </text>
    <circle
       r="10.15"
       id="ellipse106"
       stroke-width="0.59"
       stroke="#000000"
       fill="#ffffff"
       cy="79.765648"
       cx="43.846535" />
    <text
       id="text110"
       transform="scale(0.948888)"
       font-size="12px"
       font-family="'Liberation Sans'"
       xml:space="preserve">             <tspan
   id="tspan108"
   y="111.12"
   x="456.28">3</tspan>        </text>
    <circle
       r="10.15"
       id="ellipse112"
       stroke-width="0.59"
       stroke="#000000"
       fill="#ffffff"
       cy="309.82001"
       cx="277.48999" />
    <text
       id="text116"
       transform="scale(0.948888)"
       font-size="12px"
       font-family="'Liberation Sans'"
       xml:space="preserve">             <tspan
   id="tspan114"
   y="330.19"
   x="288.92999">5</tspan>        </text>
    <circle
       r="10.15"
       id="ellipse118"
       stroke-width="0.59"
       stroke="#000000"
       fill="#ffffff"
       cy="255.91"
       cx="360.81" />
    <text
       id="text122"
       transform="scale(0.948888)"
       font-size="12px"
       font-family="'Liberation Sans'"
       xml:space="preserve">             <tspan
   id="tspan120"
   y="273.37"
   x="376.75">6</tspan>        </text>
    <circle
       r="10.15"
       id="ellipse124"
       stroke-width="0.59"
       stroke="#000000"
       fill="#ffffff"
       cy="227.31"
       cx="606.58002" />
    <text
       id="text128"
       transform="scale(0.948888)"
       font-size="12px"
       font-family="'Liberation Sans'"
       xml:space="preserve">             <tspan
   id="tspan126"
   y="243.24001"
   x="635.76001">7</tspan>        </text>
    <circle
       r="10.15"
       id="ellipse130"
       stroke-width="0.59"
       stroke="#000000"
       fill="#ffffff"
       cy="342.51999"
       cx="634.87" />
    <text
       id="text134"
       transform="scale(0.948888)"
       font-size="12px"
       font-family="'Liberation Sans'"
       xml:space="preserve">             <tspan
   id="tspan132"
   y="364.64001"
   x="665.57001">8</tspan>        </text>
    <circle
       r="10.15"
       id="ellipse136"
       stroke-width="0.59"
       stroke="#000000"
       fill="#ffffff"
       cy="165.7"
       cx="208.19" />
    <text
       id="text140"
       transform="scale(0.948888)"
       font-size="12px"
       font-family="'Liberation Sans'"
       xml:space="preserve">             <tspan
   id="tspan138"
   y="178.3"
   x="215.91">4</tspan>        </text>
    <path
       id="path142"
       stroke-linejoin="bevel"
       stroke-linecap="square"
       stroke-width="0.55"
       stroke="#000000"
       fill="#ffffff"
       d="m 226.76,174.58 c -0.06,1.55 -1.37,2.76 -2.93,2.69 -1.55,-0.05 -2.76,-1.36 -2.7,-2.9 0.06,-1.55 1.37,-2.75 2.92,-2.7 1.56,0.06 2.77,1.37 2.71,2.91" />
    <path
       id="path144"
       stroke-linejoin="bevel"
       stroke-linecap="square"
       stroke-width="0.55"
       stroke="#000000"
       fill="#ffffff"
       d="m 282.35,291.58 c -0.06,1.54 -1.37,2.75 -2.92,2.69 -1.56,-0.06 -2.77,-1.36 -2.71,-2.91 0.06,-1.55 1.37,-2.75 2.92,-2.69 1.56,0.06 2.77,1.36 2.71,2.91" />
    <path
       id="path146"
       stroke-linejoin="bevel"
       stroke-linecap="square"
       stroke-width="0.55"
       stroke="#000000"
       fill="#ffffff"
       d="m 348.35,243.12 c -0.06,1.54 -1.37,2.75 -2.92,2.69 -1.56,-0.06 -2.77,-1.36 -2.71,-2.91 0.06,-1.55 1.37,-2.75 2.92,-2.69 1.56,0.06 2.77,1.36 2.71,2.91" />
    <path
       id="path148"
       stroke-linejoin="bevel"
       stroke-linecap="square"
       stroke-width="0.55"
       stroke="#000000"
       fill="#ffffff"
       d="m 593.61,244.12 c -0.06,1.54 -1.37,2.75 -2.92,2.69 -1.56,-0.06 -2.77,-1.36 -2.71,-2.91 0.06,-1.55 1.37,-2.75 2.93,-2.69 1.55,0.06 2.76,1.36 2.7,2.91" />
    <path
       id="path150"
       stroke-linejoin="bevel"
       stroke-linecap="square"
       stroke-width="0.55"
       stroke="#000000"
       fill="#ffffff"
       d="m 618.88,331.64 c -0.07,1.55 -1.37,2.75 -2.93,2.69 -1.56,-0.06 -2.77,-1.36 -2.71,-2.91 0.06,-1.54 1.37,-2.75 2.93,-2.69 1.55,0.06 2.76,1.36 2.71,2.91" />
  </g>
  <circle
     cx="344.2399"
     cy="159.88029"
     fill="#ffffff"
     stroke="#000000"
     stroke-width="0.59"
     id="ellipse136-8"
     r="10.15" />
  <circle
     cx="436.80215"
     cy="106.33186"
     fill="#ffffff"
     stroke="#000000"
     stroke-width="0.59"
     id="ellipse136-0"
     r="10.15" />
  <circle
     cx="608.1571"
     cy="228.72827"
     fill="#ffffff"
     stroke="#000000"
     stroke-width="0.59"
     id="ellipse136-2"
     r="10.15" />
  <circle
     cx="636.4613"
     cy="344.23987"
     fill="#ffffff"
     stroke="#000000"
     stroke-width="0.59"
     id="ellipse136-22"
     r="10.15" />
  <circle
     cx="362.59933"
     cy="257.79742"
     fill="#ffffff"
     stroke="#000000"
     stroke-width="0.59"
     id="ellipse136-7"
     r="10.15" />
  <circle
     cx="279.2168"
     cy="311.34586"
     fill="#ffffff"
     stroke="#000000"
     stroke-width="0.59"
     id="ellipse136-3"
     r="10.15" />
  <circle
     cx="209.60385"
     cy="167.53009"
     fill="#ffffff"
     stroke="#000000"
     stroke-width="0.59"
     id="ellipse136-79"
     r="10.15" />
  <text
     transform="scale(0.91913708,1.087977)"
     id="text522"
     y="166.8002"
     x="177.17117"
     style="font-size:13.0814px;line-height:1.25;font-family:Kokonor;-inkscape-font-specification:'Kokonor, Normal';stroke-width:0.327035"
     xml:space="preserve"><tspan
       style="stroke-width:0.327035"
       y="166.8002"
       x="177.17117"
       id="tspan520"
       sodipodi:role="line">2</tspan></text>
  <text
     transform="scale(1.071281,0.93346189)"
     id="text526"
     y="91.584579"
     x="37.363804"
     style="font-size:14.9775px;line-height:1.25;font-family:Kokonor;-inkscape-font-specification:'Kokonor, Normal';stroke-width:0.374428"
     xml:space="preserve"><tspan
       style="stroke-width:0.374428"
       y="91.584579"
       x="37.363804"
       id="tspan524"
       sodipodi:role="line">3</tspan></text>
  <text
     transform="scale(0.91486958,1.093052)"
     id="text530"
     y="103.65688"
     x="472.86734"
     style="font-size:14.0834px;line-height:1.25;font-family:Kokonor;-inkscape-font-specification:'Kokonor, Normal';stroke-width:0.352085"
     xml:space="preserve"><tspan
       style="stroke-width:0.352085"
       y="103.65688"
       x="472.86734"
       id="tspan528"
       sodipodi:role="line">4</tspan><tspan
       style="stroke-width:0.352085"
       id="tspan532"
       y="121.26113"
       x="472.86734"
       sodipodi:role="line" /></text>
  <text
     transform="scale(1.0984105,0.91040643)"
     id="text536"
     y="182.18359"
     x="307.89197"
     style="font-size:16.3568px;line-height:1.25;font-family:Kokonor;-inkscape-font-specification:'Kokonor, Normal';stroke-width:0.408922"
     xml:space="preserve"><tspan
       style="stroke-width:0.408922"
       y="182.18359"
       x="307.89197"
       id="tspan534"
       sodipodi:role="line">5</tspan></text>
  <text
     transform="scale(1.0912572,0.91637429)"
     id="text540"
     y="189.38171"
     x="186.44504"
     style="font-size:16.746px;line-height:1.25;font-family:Kokonor;-inkscape-font-specification:'Kokonor, Normal';stroke-width:0.418648"
     xml:space="preserve"><tspan
       style="stroke-width:0.418648"
       y="189.38171"
       x="186.44504"
       id="tspan538"
       sodipodi:role="line">6</tspan></text>
  <text
     transform="scale(0.97601284,1.0245767)"
     id="text544"
     y="311.38275"
     x="279.49814"
     style="font-size:21.0286px;line-height:1.25;font-family:Kokonor;-inkscape-font-specification:'Kokonor, Normal';stroke-width:0.525715"
     xml:space="preserve"><tspan
       style="stroke-width:0.525715"
       y="311.38275"
       x="279.49814"
       id="tspan542"
       sodipodi:role="line">7</tspan></text>
  <text
     transform="scale(0.97247836,1.0283005)"
     id="text548"
     y="256.94525"
     x="366.94897"
     style="font-size:18.8757px;line-height:1.25;font-family:Kokonor;-inkscape-font-specification:'Kokonor, Normal';stroke-width:0.471894"
     xml:space="preserve"><tspan
       style="stroke-width:0.471894"
       y="256.94525"
       x="366.94897"
       id="tspan546"
       sodipodi:role="line">8</tspan></text>
  <text
     transform="scale(0.93393832,1.0707345)"
     id="text552"
     y="219.09096"
     x="645.46515"
     style="font-size:18.0159px;line-height:1.25;font-family:Kokonor;-inkscape-font-specification:'Kokonor, Normal';stroke-width:0.450398"
     xml:space="preserve"><tspan
       style="stroke-width:0.450398"
       y="219.09096"
       x="645.46515"
       id="tspan550"
       sodipodi:role="line">9</tspan></text>
  <text
     transform="scale(0.98565915,1.0145495)"
     id="text556"
     y="344.95117"
     x="634.92456"
     style="font-size:15.1568px;line-height:1.25;font-family:Kokonor;-inkscape-font-specification:'Kokonor, Normal';stroke-width:0.378921"
     xml:space="preserve"><tspan
       style="stroke-width:0.378921"
       y="344.95117"
       x="634.92456"
       id="tspan554"
       sodipodi:role="line">10</tspan></text>
</svg>
