<?xml version="1.0" encoding="UTF-8" standalone="no"?>
<!-- Created with Inkscape by VulcanSphere (http://www.inkscape.org/ and http://vulcansphere.com) -->

<svg
   width="230.37343mm"
   height="263.86343mm"
   viewBox="0 0 230.3734 263.86343"
   version="1.1"
   id="svg1"
   xml:space="preserve"
   xmlns="http://www.w3.org/2000/svg"
   xmlns:svg="http://www.w3.org/2000/svg"
   xmlns:rdf="http://www.w3.org/1999/02/22-rdf-syntax-ns#"
   xmlns:cc="http://creativecommons.org/ns#"
   xmlns:dc="http://purl.org/dc/elements/1.1/"><title
     id="title1">Balaton Park Circuit</title><desc
     id="desc1">Motorsport circuit in Balatonfőkajár, Hungary</desc><defs
     id="defs1" /><g
     id="layer1"
     transform="translate(58.30594,94.573871)"><g
       id="g3"
       transform="translate(-28.309081,3.8779594)"><path
         style="font-size:15.1843px;font-family:STIX;stroke-width:0.253721"
         d="m -5.1873113,-62.425913 v -0.16365 c -0.818244,0 -1.0364422,-0.196377 -1.0364422,-0.665504 v -6.513218 l -0.098189,-0.03273 -1.9528737,0.992802 v 0.152739 l 0.2945671,-0.109099 c 0.1963797,-0.07637 0.3818478,-0.130919 0.4909468,-0.130919 0.2291079,0 0.3272973,0.163648 0.3272973,0.534585 v 4.898551 c 0,0.600046 -0.2291089,0.829154 -1.0364422,0.872793 v 0.163649 z"
         id="path2"
         transform="matrix(1.0150671,0,0,0.98515657,0.23386069,-0.36615206)" /><ellipse
         style="fill:none;stroke:#000000;stroke-width:0.371315;stroke-dasharray:none"
         id="path18"
         cx="-6.7352815"
         cy="-65.335907"
         rx="5.7306643"
         ry="5.1049566" /></g><ellipse
       style="fill:none;stroke:#000000;stroke-width:0.371315;stroke-dasharray:none"
       id="ellipse19"
       cx="-48.240761"
       cy="-88.005737"
       rx="5.7306643"
       ry="5.1049566" /><g
       id="g1"
       transform="translate(17.586335,-9.1673448)"><path
         style="font-size:15.1843px;font-family:STIX;stroke-width:0.230826"
         d="m 98.145046,-34.276642 -0.08933,-0.06948 c -0.158807,0.208436 -0.248137,0.258062 -0.476423,0.258062 h -2.054574 l -1.081879,2.352341 c 0,0 -0.0099,0.02978 -0.0099,0.04963 0,0.05956 0.02978,0.0794 0.119107,0.0794 0.952846,0 1.647629,0.317615 2.114127,0.694783 0.446647,0.357317 0.665009,0.853591 0.665009,1.488823 0,0.853592 -0.645157,1.677406 -1.339941,1.677406 -0.19851,0 -0.426796,-0.08933 -0.704709,-0.317615 -0.317616,-0.258062 -0.5062,-0.30769 -0.734486,-0.30769 -0.277915,0 -0.446647,0.129031 -0.446647,0.377169 0,0.377168 0.516126,0.61538 1.260536,0.61538 0.674933,0 1.220834,-0.148883 1.687332,-0.486348 0.674933,-0.496275 0.972698,-1.111655 0.972698,-2.064502 0,-0.52605 -0.08933,-0.903219 -0.347392,-1.260536 -0.565753,-0.784114 -1.062027,-1.002475 -2.481371,-1.270462 l 0.397019,-0.843666 h 1.925544 c 0.158808,0 0.238212,-0.05956 0.267988,-0.129032 z"
         id="path5"
         transform="matrix(1.0150671,0,0,0.98515657,0.23386069,-0.36615206)" /><ellipse
         style="fill:none;stroke:#000000;stroke-width:0.371315;stroke-dasharray:none"
         id="ellipse21"
         cx="97.864372"
         cy="-30.428297"
         rx="5.7306643"
         ry="5.1049566" /></g><g
       id="g2"
       transform="translate(-17.946272,0.70020567)"><path
         style="font-size:15.1843px;font-family:STIX;stroke-width:0.244199"
         d="m 111.49765,-19.687866 c -1.44907,0.157508 -2.27862,0.409521 -3.18165,1.354565 -0.74553,0.766536 -1.14455,1.764084 -1.14455,2.898138 0,0.735035 0.1995,1.480569 0.49352,2.016096 0.36752,0.672032 1.02905,1.060551 1.85858,1.060551 0.69304,0 1.28108,-0.283515 1.66958,-0.766538 0.34652,-0.420019 0.53552,-1.008047 0.53552,-1.680079 0,-1.354565 -0.75602,-2.194604 -1.98459,-2.194604 -0.46203,0 -0.81904,0.07351 -1.33355,0.472522 0.28351,-1.585576 1.45956,-2.719629 3.10814,-2.992642 z m -0.71403,5.208248 c 0,1.071052 -0.38853,1.827086 -1.14456,1.827086 -0.98704,0 -1.49107,-1.05005 -1.49107,-2.646124 0,-0.966047 0.61954,-1.218058 1.21806,-1.218058 0.97653,0 1.41757,0.693032 1.41757,2.037096 z"
         id="path6"
         transform="matrix(1.0150671,0,0,0.98515657,0.23386069,-0.36615206)" /><ellipse
         style="fill:none;stroke:#000000;stroke-width:0.371315;stroke-dasharray:none"
         id="ellipse22"
         cx="111.6227"
         cy="-16.050007"
         rx="5.7306643"
         ry="5.1049566" /></g><g
       id="g35"
       transform="translate(-1.8520833,-26.458333)"><g
         id="g36"><g
           id="g41"
           transform="translate(-2.6458333,3.2411458)"><g
             id="g59"
             transform="translate(-1.8708867,2.80633)"><g
               id="g8"><path
                 style="font-size:15.1843px;font-family:STIX;stroke-width:0.245367"
                 d="m 114.65991,28.04838 v -0.168811 h -3.89323 l -0.63305,1.550961 0.18991,0.09495 c 0.44314,-0.71745 0.62249,-0.865161 1.23443,-0.865161 h 2.26843 l -2.08905,6.288243 h 0.68579 z"
                 id="path7"
                 transform="matrix(1.0150671,0,0,0.98515657,0.23386069,-0.36615206)" /><ellipse
                 style="fill:none;stroke:#000000;stroke-width:0.371315;stroke-dasharray:none"
                 id="ellipse23"
                 cx="114.40083"
                 cy="30.648951"
                 rx="5.7306643"
                 ry="5.1049566" /></g></g></g></g></g><g
       id="g37"
       transform="translate(86.915625,-71.702084)"><g
         id="g42"
         transform="translate(-4.490128,10.664054)"><g
           id="g60"
           transform="translate(-3.1805074,1.8708867)"><g
             id="g9"
             transform="translate(-17.197917)"><path
               style="font-size:15.1843px;font-family:STIX;stroke-width:0.248943"
               d="m 42.008575,114.88558 c 0,-0.84365 -0.347705,-1.41311 -1.684201,-2.27786 1.075716,-0.55891 1.456019,-0.91746 1.456019,-1.70839 0,-0.82254 -0.74974,-1.50801 -1.825455,-1.50801 -1.206104,0 -2.107966,0.63273 -2.107966,1.64511 0,0.68546 0.228182,1.0862 1.34736,1.98258 -1.162641,0.79092 -1.412555,1.2022 -1.412555,1.92984 0,0.99129 0.858399,1.71894 2.086234,1.71894 1.303897,0 2.140564,-0.696 2.140564,-1.78221 z m -0.977922,-3.98625 c 0,0.65383 -0.282512,1.09675 -1.021387,1.51856 -0.956189,-0.54835 -1.358225,-1.03344 -1.358225,-1.68728 0,-0.65382 0.467231,-1.04402 1.195239,-1.04402 0.738873,0 1.184373,0.4851 1.184373,1.21274 z m -0.912728,2.75241 c 0.738874,0.4851 1.064849,0.90693 1.064849,1.56075 0,0.68547 -0.488962,1.16002 -1.195239,1.16002 -0.8258,0 -1.379957,-0.54838 -1.379957,-1.51857 0,-0.68546 0.228181,-1.11783 0.869265,-1.62403 z"
               id="path8" /><ellipse
               style="fill:none;stroke:#000000;stroke-width:0.371315;stroke-dasharray:none"
               id="ellipse24"
               cx="39.788334"
               cy="113.19895"
               rx="5.7306643"
               ry="5.1049566" /></g></g></g></g><g
       id="g38"
       transform="translate(-20.505208,-9.525)"><path
         style="font-size:15.1843px;font-family:STIX;stroke-width:0.247471"
         d="m 55.460989,129.34993 c 1.383359,-0.19153 2.075038,-0.44692 2.979541,-1.2663 0.851298,-0.7768 1.276947,-1.93669 1.276947,-3.16044 0,-0.89387 -0.255389,-1.66003 -0.681038,-2.19209 -0.415007,-0.51077 -0.989634,-0.80873 -1.670672,-0.80873 -1.266305,0 -2.213374,1.07477 -2.213374,2.51133 0,1.29822 0.766167,2.16017 1.91542,2.16017 0.627832,0 1.138612,-0.15963 1.596184,-0.60656 -0.42565,1.74516 -1.617466,2.86249 -3.234932,3.14981 z m 3.224289,-4.01174 c 0,0.564 -0.776809,0.7981 -1.245023,0.7981 -0.798091,0 -1.308869,-0.7981 -1.308869,-2.06439 0,-0.57463 0.159619,-1.20247 0.372442,-1.48977 0.180902,-0.23411 0.457573,-0.3618 0.776809,-0.3618 0.925788,0 1.404641,0.91514 1.404641,2.70286 z"
         id="path9"
         transform="matrix(1.0150671,0,0,0.98515657,0.23386069,-0.36615206)" /><ellipse
         style="fill:none;stroke:#000000;stroke-width:0.371315;stroke-dasharray:none"
         id="ellipse25"
         cx="58.309166"
         cy="123.78229"
         rx="5.7306643"
         ry="5.1049566" /></g><g
       id="g39"
       transform="translate(41.804167,-38.364583)"><path
         style="font-size:15.1843px;font-family:STIX;stroke-width:0.214638"
         d="m 15.951063,169.46391 v -0.13844 c -0.692206,0 -0.876795,-0.16613 -0.876795,-0.56299 v -5.50997 l -0.08306,-0.0277 -1.652066,0.83987 v 0.12921 l 0.249195,-0.0923 c 0.166129,-0.0646 0.323029,-0.11075 0.415323,-0.11075 0.193817,0 0.276883,0.13843 0.276883,0.45224 v 4.14401 c 0,0.50761 -0.193819,0.70143 -0.876795,0.73835 v 0.13845 z m 5.233077,-3.0457 c 0,-1.89203 -0.839876,-3.19338 -2.04893,-3.19338 -1.485936,0 -2.122765,1.50439 -2.122765,3.138 0,1.51362 0.507617,3.2303 2.085848,3.2303 1.504393,0 2.085847,-1.58746 2.085847,-3.17492 z m -0.886024,0.0461 c 0,1.82742 -0.415323,2.88881 -1.199823,2.88881 -0.79373,0 -1.199824,-1.05215 -1.199824,-2.92574 0,-1.87356 0.415323,-2.96263 1.181364,-2.96263 0.812189,0 1.218283,1.07985 1.218283,2.99956 z"
         id="path10"
         transform="matrix(1.0150671,0,0,0.98515657,0.23386069,-0.36615206)" /><ellipse
         style="fill:none;stroke:#000000;stroke-width:0.371315;stroke-dasharray:none"
         id="ellipse26"
         cx="17.728697"
         cy="163.60207"
         rx="5.7306643"
         ry="5.1049566" /></g><g
       id="g40"
       transform="translate(-94.672212,84.917954)"><path
         style="font-size:15.1843px;font-family:STIX;stroke-width:0.218245"
         d="m 109.44552,83.327281 v -0.140765 c -0.70384,0 -0.89153,-0.168922 -0.89153,-0.572452 v -5.602518 l -0.0845,-0.02815 -1.67982,0.853986 v 0.131382 l 0.25338,-0.09384 c 0.16893,-0.06569 0.32846,-0.112614 0.42231,-0.112614 0.19707,0 0.28153,0.140767 0.28153,0.459838 v 4.213618 c 0,0.516145 -0.19708,0.713219 -0.89153,0.750757 v 0.140766 z m 4.83299,0 v -0.140765 c -0.70383,0 -0.89152,-0.168922 -0.89152,-0.572452 v -5.602518 l -0.0845,-0.02815 -1.67981,0.853986 v 0.131382 l 0.25338,-0.09384 c 0.16891,-0.06569 0.32846,-0.112614 0.4223,-0.112614 0.19708,0 0.28153,0.140767 0.28153,0.459838 v 4.213618 c 0,0.516145 -0.19707,0.713219 -0.89152,0.750757 v 0.140766 z"
         id="path11"
         transform="matrix(1.0150671,0,0,0.98515657,0.23386069,-0.36615206)" /><ellipse
         style="fill:none;stroke:#000000;stroke-width:0.371315;stroke-dasharray:none"
         id="ellipse27"
         cx="112.28416"
         cy="78.803116"
         rx="5.7306643"
         ry="5.1049566" /></g><g
       id="g43"
       transform="translate(-32.820017,149.33849)"><g
         id="g57"
         transform="translate(3.5546847,-5.6126601)"><g
           id="g5"
           transform="translate(-2.5135417,1.3229167)"><path
             style="font-size:15.1843px;font-family:STIX;stroke-width:0.201972"
             d="m 130.40669,-22.694232 v -0.128338 c -0.66117,0 -0.83748,-0.154005 -0.83748,-0.521907 v -5.107839 l -0.0794,-0.02566 -1.578,0.778581 v 0.119783 l 0.23803,-0.08556 c 0.15866,-0.05989 0.30855,-0.102669 0.39669,-0.102669 0.18513,0 0.26447,0.128336 0.26447,0.419236 v 3.841575 c 0,0.470571 -0.18512,0.650243 -0.83748,0.684468 v 0.128337 z m 5.32464,-1.172151 -0.12342,-0.05134 c -0.29091,0.479127 -0.47605,0.573241 -0.8463,0.573241 h -2.06285 l 1.45457,-1.505828 c 0.78459,-0.804249 1.12841,-1.445939 1.12841,-2.12185 0,-0.847029 -0.63473,-1.505829 -1.6309,-1.505829 -1.08432,0 -1.64851,0.701579 -1.83365,1.702614 l 0.18514,0.04277 c 0.35262,-0.838473 0.66116,-1.11226 1.29589,-1.11226 0.74932,0 1.22536,0.427792 1.22536,1.206375 0,0.727246 -0.31736,1.377491 -1.14602,2.22452 l -1.56919,1.617053 v 0.102671 h 3.4469 z"
             id="path12" /><ellipse
             style="fill:none;stroke:#000000;stroke-width:0.371315;stroke-dasharray:none"
             id="ellipse28"
             cx="131.59874"
             cy="-25.442717"
             rx="5.7306643"
             ry="5.1049566" /></g></g></g><g
       id="g44"
       transform="translate(-86.563673,134.73436)"><g
         id="g58"
         transform="translate(1.8520833,-3.571875)"><path
           style="font-size:15.1843px;font-family:STIX;stroke-width:0.19939"
           d="m 160.17592,-24.393769 v -0.126697 c -0.65272,0 -0.82678,-0.152036 -0.82678,-0.515235 v -5.042543 l -0.0783,-0.02534 -1.55782,0.76863 v 0.11825 l 0.23497,-0.08447 c 0.15666,-0.05912 0.3046,-0.101357 0.39164,-0.101357 0.18275,0 0.26109,0.126697 0.26109,0.413876 v 3.792466 c 0,0.464556 -0.18277,0.641932 -0.82679,0.675719 v 0.126697 z m 1.4969,-4.307699 c 0.35684,-0.625041 0.75715,-0.895327 1.29674,-0.895327 0.5744,0 0.93991,0.287179 0.93991,0.861539 0,0.515236 -0.27848,0.895328 -0.70493,1.131828 -0.17407,0.101357 -0.40033,0.194269 -0.73105,0.304073 v 0.11825 c 0.49607,0 0.69624,0.02534 0.88769,0.08447 0.60052,0.168929 0.90511,0.582806 0.90511,1.224737 0,0.717952 -0.48736,1.292312 -1.13137,1.292312 -0.24369,0 -0.42646,-0.04222 -0.74845,-0.261841 -0.24369,-0.16893 -0.38294,-0.219608 -0.53088,-0.219608 -0.20018,0 -0.35683,0.126697 -0.35683,0.304074 0,0.304071 0.33942,0.481447 0.97473,0.481447 0.77455,0 1.60135,-0.244947 2.01909,-0.785521 0.25237,-0.320967 0.40032,-0.734843 0.40032,-1.182507 0,-0.439215 -0.13925,-0.827753 -0.38291,-1.089596 -0.18278,-0.185821 -0.33942,-0.287178 -0.72237,-0.447662 0.58311,-0.337859 0.80938,-0.760183 0.80938,-1.165613 0,-0.69261 -0.54828,-1.157167 -1.35765,-1.157167 -0.9051,0 -1.45339,0.565915 -1.70576,1.368329 z"
           id="path13" /><ellipse
           style="fill:none;stroke:#000000;stroke-width:0.371315;stroke-dasharray:none"
           id="ellipse29"
           cx="161.09978"
           cy="-27.030216"
           rx="5.7306643"
           ry="5.1049566" /></g></g><g
       id="g45"
       transform="translate(-52.991489,155.20193)"><g
         id="g56"
         transform="translate(9.5415222,-8.9802561)"><g
           id="g6"
           transform="translate(-1.8520833,-0.396875)"><path
             style="font-size:15.1843px;font-family:STIX;stroke-width:0.206843"
             d="m 161.74227,-46.269961 v -0.133413 c -0.66707,0 -0.84495,-0.160096 -0.84495,-0.542546 v -5.309831 l -0.0801,-0.02668 -1.59207,0.809371 v 0.124519 l 0.24014,-0.08895 c 0.1601,-0.06226 0.31129,-0.106727 0.40023,-0.106727 0.18679,0 0.26684,0.133413 0.26684,0.435815 v 3.99349 c 0,0.489181 -0.18679,0.675959 -0.84496,0.711536 v 0.133413 z m 5.25646,-1.485331 v -0.569228 h -0.91609 v -3.957913 h -0.39135 l -2.79278,3.957913 v 0.569228 h 2.49038 v 1.485331 h 0.69375 v -1.485331 z m -1.60984,-0.569228 h -2.13461 l 2.13461,-3.050705 z"
             id="path14"
             transform="matrix(1.0150671,0,0,0.98515657,0.23386069,-0.36615206)" /><ellipse
             style="fill:none;stroke:#000000;stroke-width:0.371315;stroke-dasharray:none"
             id="ellipse30"
             cx="165.73022"
             cy="-48.872818"
             rx="5.7306643"
             ry="5.1049566" /></g></g></g><g
       id="g46"
       transform="translate(-18.649231,51.283772)"><path
         style="font-size:15.1843px;font-family:STIX;stroke-width:0.217409"
         d="m 146.99338,-72.84489 v -0.138146 c -0.7117,0 -0.90149,-0.165777 -0.90149,-0.561799 v -5.498248 l -0.0854,-0.02762 -1.69862,0.838092 v 0.128937 l 0.25622,-0.0921 c 0.1708,-0.06447 0.33213,-0.110518 0.42702,-0.110518 0.19928,0 0.28468,0.138147 0.28468,0.451281 v 4.135198 c 0,0.50654 -0.19927,0.699945 -0.90149,0.736784 v 0.138147 z m 5.01991,-6.271872 -0.0854,-0.06447 c -0.15183,0.193407 -0.23724,0.239455 -0.4555,0.239455 h -1.96431 l -1.03435,2.182722 c 0,0 -0.009,0.02762 -0.009,0.04605 0,0.05526 0.0284,0.07368 0.11387,0.07368 0.91099,0 1.57525,0.294714 2.02125,0.644686 0.42702,0.331552 0.63579,0.792043 0.63579,1.38147 0,0.792042 -0.61681,1.556456 -1.28107,1.556456 -0.18979,0 -0.40804,-0.08289 -0.67374,-0.294715 -0.30367,-0.239453 -0.48397,-0.285503 -0.70223,-0.285503 -0.2657,0 -0.42703,0.119727 -0.42703,0.349973 0,0.349972 0.49346,0.571008 1.20516,0.571008 0.64529,0 1.16721,-0.138148 1.6132,-0.451281 0.64529,-0.460491 0.92997,-1.031497 0.92997,-1.915638 0,-0.488119 -0.0854,-0.838091 -0.33213,-1.169644 -0.5409,-0.727573 -1.01537,-0.930189 -2.37235,-1.178855 l 0.37957,-0.782832 h 1.84095 c 0.15183,0 0.22774,-0.05526 0.25621,-0.119727 z"
         id="path15" /><ellipse
         style="fill:none;stroke:#000000;stroke-width:0.371315;stroke-dasharray:none"
         id="ellipse31"
         cx="148.19551"
         cy="-76.080887"
         rx="5.7306643"
         ry="5.1049566" /></g><g
       id="g4"
       transform="translate(11.973675,13.470385)"><g
         id="g47"
         transform="translate(28.045833,31.485417)"><g
           id="g48"
           transform="translate(-0.95814101,-0.02269766)"><g
             id="g61"
             transform="translate(-0.396875,-1.984375)"><path
               style="font-size:15.1694px;font-family:STIX;stroke-width:0.204858"
               d="m 119.87866,-66.006627 v -0.132134 c -0.66067,0 -0.83686,-0.158561 -0.83686,-0.537344 v -5.258915 l -0.0793,-0.02643 -1.57679,0.80161 v 0.123325 l 0.23784,-0.08809 c 0.15856,-0.06166 0.3083,-0.105707 0.39639,-0.105707 0.18499,0 0.26427,0.132133 0.26427,0.431636 v 3.955198 c 0,0.48449 -0.18499,0.669478 -0.83685,0.704713 v 0.132133 z m 4.81847,-6.025291 c -1.21563,0.132133 -1.91152,0.343548 -2.66911,1.136348 -0.62543,0.643051 -0.96017,1.479897 -0.96017,2.431258 0,0.616624 0.16737,1.242056 0.41402,1.69131 0.30832,0.563769 0.86328,0.8897 1.55918,0.8897 0.58139,0 1.07468,-0.237841 1.40063,-0.643051 0.29068,-0.352355 0.44925,-0.845654 0.44925,-1.409424 0,-1.136349 -0.63424,-1.841061 -1.66488,-1.841061 -0.3876,0 -0.68711,0.06166 -1.11874,0.3964 0.23784,-1.330144 1.22444,-2.281506 2.60744,-2.510538 z m -0.59901,4.369216 c 0,0.898508 -0.32593,1.53275 -0.96016,1.53275 -0.82805,0 -1.25087,-0.880891 -1.25087,-2.219843 0,-0.81042 0.51973,-1.021834 1.02184,-1.021834 0.81922,0 1.18919,0.581388 1.18919,1.708927 z"
               id="text54" /><ellipse
               style="fill:none;stroke:#000000;stroke-width:0.371315;stroke-dasharray:none"
               id="ellipse32"
               cx="121.3043"
               cy="-69.050621"
               rx="5.7306643"
               ry="5.1049566" /></g></g><g
           id="g55"
           transform="translate(0.67311347,-32.969575)"><g
             id="g7"><g
               id="g10"
               transform="matrix(1.0468504,0,0,1.0468504,-5.6282088,3.4263961)"><path
                 style="font-size:15.1843px;font-family:STIX;stroke-width:0.19541"
                 d="m 159.67514,-39.196137 v -0.132445 h -3.14728 l -0.51176,1.216849 0.15352,0.07449 c 0.35824,-0.562895 0.50322,-0.678785 0.99791,-0.678785 h 1.8338 l -1.68879,4.933611 h 0.5544 z"
                 id="path56"
                 transform="translate(-35.060516,-32.535352)" /><path
                 style="font-size:15.1694px;font-family:STIX;stroke-width:0.194025"
                 d="m 120.01141,-66.325244 v -0.125147 c -0.62573,0 -0.7926,-0.150176 -0.7926,-0.508929 v -4.980824 l -0.0751,-0.02503 -1.49341,0.75922 v 0.116804 l 0.22526,-0.08343 c 0.15018,-0.0584 0.292,-0.100117 0.37543,-0.100117 0.17521,0 0.2503,0.125146 0.2503,0.408811 v 3.746047 c 0,0.45887 -0.17521,0.634076 -0.7926,0.667448 v 0.125146 z"
                 id="path55" /></g><ellipse
               style="fill:none;stroke:#000000;stroke-width:0.371315;stroke-dasharray:none"
               id="ellipse55"
               cx="121.3043"
               cy="-69.050621"
               rx="5.7306643"
               ry="5.1049566" /></g></g></g></g><g
       id="g34"
       transform="matrix(1.9149172,0,0,1.9149172,-92.890459,-26.638566)"><path
         style="font-size:4.2375px;fill:#ff0000;stroke:none;stroke-width:1.02731;stroke-dasharray:none"
         d="m 77.122649,19.480133 -5.23261,6.073203 0.4165,-3.04344 -2.52542,-2.172267 z"
         id="path22"
         transform="matrix(1.0150671,0,0,0.98515657,0.23386069,-0.36615206)" /><g
         id="g33"
         transform="matrix(0.58633151,0,0,0.58633151,1.7909396,31.653308)"><path
           style="font-weight:bold;font-size:9.03312px;font-family:'Nimbus Roman No9 L';-inkscape-font-specification:'Nimbus Roman No9 L Bold';stroke-width:2.26581"
           d="m 113.28485,-18.543693 -0.79392,-0.114678 v -0.321981 h 2.1039 v 0.321981 l -0.75864,0.114678 v 5.478094 h -0.51605 l -3.64765,-4.754738 v 4.313667 l 0.79392,0.119089 v 0.321982 h -2.1039 v -0.321982 l 0.75864,-0.119089 v -5.037023 l -0.75864,-0.114678 v -0.321981 h 2.02451 l 2.89783,3.779972 z"
           id="text33" /><ellipse
           style="fill:none;stroke:#000000;stroke-width:0.371315;stroke-dasharray:none"
           id="ellipse33"
           cx="111.6227"
           cy="-16.050007"
           rx="5.7306643"
           ry="5.1049566" /></g></g><g
       id="layer1-5"
       transform="translate(-193.33394,-234.01165)" /><g
       id="text20"
       style="font-size:4.2375px;stroke-width:0.353125"
       transform="matrix(1.0150671,0,0,0.98515658,0.23386084,-0.3661525)"><path
         style="font-size:15.1843px;font-family:STIX;stroke-width:0.2728"
         d="m -49.674753,-91.070102 c 0.502438,-0.830914 1.066147,-1.190228 1.825931,-1.190228 0.808801,0 1.323492,0.381771 1.323492,1.145314 0,0.684944 -0.392145,1.19023 -0.992619,1.504629 -0.245091,0.134744 -0.56371,0.258258 -1.029384,0.40423 v 0.1572 c 0.698511,0 0.980365,0.03369 1.249966,0.112285 0.845564,0.224573 1.274474,0.774772 1.274474,1.628145 0,0.954429 -0.686256,1.717973 -1.593093,1.717973 -0.343128,0 -0.600473,-0.05614 -1.053892,-0.348087 -0.343128,-0.224571 -0.539201,-0.291943 -0.747528,-0.291943 -0.281855,0 -0.502437,0.168429 -0.502437,0.404229 0,0.404229 0.477928,0.640029 1.37251,0.640029 1.090656,0 2.25484,-0.325628 2.843058,-1.044258 0.355382,-0.426686 0.56371,-0.976886 0.56371,-1.572001 0,-0.583886 -0.196073,-1.1004 -0.5392,-1.448486 -0.257346,-0.247029 -0.477929,-0.381772 -1.017129,-0.595115 0.821056,-0.449144 1.139675,-1.010572 1.139675,-1.549544 0,-0.920743 -0.772038,-1.538315 -1.911712,-1.538315 -1.274474,0 -2.046512,0.752315 -2.401894,1.819029 z"
         id="path16" /><g
         id="g11"
         transform="translate(-0.65164001,1.3428491)"><ellipse
           style="fill:none;stroke:#000000;stroke-width:0.371315;stroke-dasharray:none"
           id="ellipse18"
           cx="7.1206288"
           cy="-89.018677"
           rx="5.7306643"
           ry="5.1049566"
           transform="matrix(0.98515656,0,0,1.0150671,-0.23038878,0.37166886)" /><path
           style="font-size:15.1843px;font-family:STIX;stroke-width:0.245561"
           d="m 9.310183,-88.092846 -0.1544329,-0.06064 c -0.3640199,0.566013 -0.5956689,0.677194 -1.0589671,0.677194 H 5.5155502 l 1.8201001,-1.778896 c 0.9817509,-0.950093 1.4119562,-1.708146 1.4119562,-2.506629 0,-1.00063 -0.7942253,-1.778898 -2.0407181,-1.778898 -1.3568019,0 -2.0627802,0.828805 -2.2944294,2.011369 l 0.2316492,0.05053 c 0.4412365,-0.990524 0.8273182,-1.31396 1.6215438,-1.31396 0.9376274,0 1.5332965,0.505369 1.5332965,1.42514 0,0.859128 -0.3971127,1.627288 -1.4340183,2.627918 l -1.963502,1.910294 v 0.121289 h 4.3130857 z"
           id="path3" /></g><g
         id="g12"
         transform="translate(1.30328,4.2971173)"><ellipse
           style="fill:none;stroke:#000000;stroke-width:0.371315;stroke-dasharray:none"
           id="ellipse20"
           cx="-51.926598"
           cy="-38.18811"
           rx="5.7306643"
           ry="5.1049566"
           transform="matrix(0.98515656,0,0,1.0150671,-0.23038878,0.37166886)" /><path
           style="font-size:15.1843px;font-family:STIX;stroke-width:0.280804"
           d="m -49.103067,-36.461519 v -0.772769 h -1.243676 v -5.373163 h -0.531278 l -3.791401,5.373163 v 0.772769 h 3.380867 v 2.016445 h 0.941812 v -2.016445 z m -2.185488,-0.772769 h -2.897885 l 2.897885,-4.141562 z"
           id="path4" /></g><path
         style="fill:#ff0000;stroke:none;stroke-width:1.24459;stroke-dasharray:none"
         d="m 91.915011,-75.50193 8.958139,-3.406751 -2.132895,3.005956 1.493015,3.807543 z"
         id="path21" /><path
         style="font-size:4.2375px;fill:none;stroke:#000000;stroke-width:0.837234;stroke-dasharray:none"
         d="m 149.7704,-26.281246 c 0,0 0.51096,-0.648567 0.78747,-1.426235 0.37213,-1.04659 1.98284,-5.188437 2.18378,-6.003172 0.64034,-2.429009 4.84775,-13.983988 3.12466,-16.664335 -1.21951,-1.896997 -13.86289,-20.236707 -15.10817,-21.681594 -3.17186,-3.680288 -5.71558,-4.947546 -6.81288,-6.155637 -0.47321,-0.520982 -4.1344,-0.866578 -5.43008,-0.514133 -1.45003,0.394433 -2.54633,1.242433 -3.09665,1.72921 -5.04623,4.463576 -14.03247,14.534341 -18.50076,14.498341 -48.574648,-0.391365 -99.2504068,0.804222 -99.2504068,0.804222 l -30.8173242,3.084492 132.038441,0.189556 9.05358,0.291073 27.56294,3.108775 z"
         id="path20" /></g><path
       id="path1"
       d="m -7.6440813,-79.433233 c 2.4708564,-1.426985 3.3336187,-4.379574 2.6705885,-6.801348 -0.468255,-1.710341 -1.7929783,-2.881776 -3.4090084,-3.340297 -0.8361794,-0.237251 -1.3748544,-0.361944 -2.1570638,-0.387037 -2.941152,-0.09435 -6.631159,0.0228 -9.945158,-0.04374 -3.310109,-0.06646 -6.584598,0.12417 -9.682691,1.374423 -4.680305,1.888764 -9.068326,4.849639 -11.197283,9.40967 -3.02936,6.488614 -6.492427,13.367102 -8.771112,20.479279 -2.754963,8.598727 5.226271,17.238945 14.424952,17.242422 8.596135,0.0033 17.19227,7.59e-4 25.7884076,0.0071 11.882612,0.0088 23.7652274,0.01917 35.6481934,0.03669 11.560175,0.01705 23.120702,0.04904 34.681228,0.06491 13.877571,0.01905 27.754792,0.02699 41.632368,0.04198 5.34458,0.0058 9.18083,5.362274 7.38999,10.379782 -1.29315,3.623078 -2.73385,7.193782 -4.00297,10.824985 -1.12518,3.219389 -0.74006,5.296759 0.44875,8.478983 0.7969,2.1331794 6.83153,10.1853269 11.19404,16.4869334 1.29841,1.8755307 2.40524,3.3402618 2.22267,5.6297876 -1.03654,12.998815 -5.01877,35.832337 -6.69425,47.602464 -0.12042,0.380331 -0.39877,0.994556 -0.72755,1.408106 -0.41756,0.525216 -2.88453,2.609314 -5.97098,5.396641 -3.65915,3.304523 -8.134561,7.00339 -10.000715,8.729575 -4.382154,4.053474 -8.235545,7.876795 -12.615388,11.932919 -3.629271,3.361028 -7.266831,6.712696 -10.897306,10.071803 -4.402272,4.073216 -8.801572,8.149392 -13.202002,12.224462 -3.262255,3.02105 -6.533398,6.03255 -9.781823,9.06815 -1.263957,1.18115 -1.312685,2.94428 -0.16792,4.26543 0.460375,0.53129 0.933528,1.05261 1.421693,1.55858 2.336878,2.42209 2.739415,5.9606 0.694973,8.60035 -0.92136,1.18964 -2.289074,2.06778 -3.546829,2.95593 -3.181601,2.24664 -6.418085,4.41502 -9.628717,6.62093 -3.644545,2.50402 -7.255193,5.05923 -10.935755,7.50853 -3.087479,2.05462 -3.982573,6.17506 -1.863021,9.10167 2.124717,2.93375 6.327123,3.42589 9.196564,1.04844 4.660952,-3.8618 9.303317,-7.74611 13.95871,-11.6145 7.130913,-5.92543 14.265597,-11.84596 21.400558,-17.76624 1.315482,-1.09153 17.439078,-14.51434 18.046246,-15.027 0.851642,-0.71907 -3.488939,-6.13865 -4.02424,-7.00604 -0.119567,-0.19374 -0.448273,-1.07803 -0.369215,-1.74515 0.09265,-0.78186 0.623091,-1.35278 0.875475,-1.47218 4.048571,-1.91535 11.948382,-4.997324 21.511482,-10.176551 4.83329,-2.617634 7.23515,-5.197538 9.30779,-8.121362 4.08761,-5.766297 6.59934,-9.929369 8.37109,-14.19193 3.95418,-9.513145 9.78578,-26.209578 10.02284,-27.526737 0.58632,-3.257589 2.56403,-14.936729 2.70379,-21.962396 0.16746,-8.418338 -0.0947,-16.6210982 -0.0691,-25.0422559 0.0175,-5.7799106 -0.16902,-11.9510611 -0.0212,-17.6784761 0.0361,-1.399069 0.55513,-3.00482 1.3816,-4.133865 1.13397,-1.549132 3.10303,-2.694229 5.44338,-2.741002 1.29031,-0.02579 2.75631,-0.06553 4.04642,-0.100296 1.07187,-0.02889 1.4949,-0.310427 1.905,-0.58136 0.20822,-0.137559 0.53722,-0.578889 0.53338,-0.870307 -0.10738,-8.144866 -2.44644,-19.560443 -2.94753,-23.327377 0,0 -0.65479,-0.936077 -1.2328,-1.034412 -3.32941,-0.566434 -15.37653,-2.267873 -26.19257,-2.66931 -2.14016,-0.07943 -4.28378,-0.0072 -6.42585,-0.0095 -15.315849,-0.01666 -30.631695,-0.03511 -45.947894,-0.04763 -14.05255,-0.01148 -28.1051,-0.0125 -42.15765,-0.02506 -14.377458,-0.01284 -30.8128889,0.127289 -45.190347,0.153219 -3.589514,0.0065 -6.435564,-1.77711 -7.888288,-5.191651 -1.228035,-2.886421 0.261668,-6.937412 3.008665,-8.43333 2.762679,-1.504457 5.552017,-2.960158 8.32979,-4.436885 m 3.717745,2.715036 c -2.854325,1.518002 -5.524817,2.945343 -8.381645,4.458699 -1.72893,0.915871 -2.887061,2.301816 -2.472796,4.039659 0.374545,1.571214 1.334735,2.170891 3.189287,2.168525 12.5281975,-0.01598 27.1147229,0.328467 39.643273,0.332197 13.584766,0.004 27.169885,0.04192 40.754651,0.05997 14.553139,0.01933 29.105929,0.03608 43.658719,0.04657 4.98722,0.0036 10.01459,-0.04735 15.00006,0.193788 12.61153,0.610005 21.19231,1.419708 26.71183,2.264506 1.85746,0.284296 4.99219,2.19785 4.76985,2.043257 0.87285,0.403626 3.24476,19.36128 3.36364,28.670142 0.0203,1.587922 -1.20952,2.150088 -1.92439,2.654738 -0.97723,0.689853 -1.73921,0.984934 -3.89027,1.007447 -1.02729,0.01075 -2.05422,0.02951 -3.08151,0.04445 -2.05317,0.02986 -3.10707,1.084086 -3.12879,3.164771 -0.0365,3.49144 -0.0587,6.983235 -0.085,10.4750287 -0.0689,9.15387594 -0.16711,18.307402 -0.19614,27.4612813 -0.0271,8.543922 -0.89667,16.991559 -2.66947,25.348493 -1.32153,6.229642 -3.15232,12.351316 -5.41295,18.257566 -1.29121,3.373484 -2.67147,6.634327 -4.23305,9.936079 -3.26104,6.895049 -6.00406,11.411629 -8.64554,15.123469 -2.60771,3.66439 -5.09126,6.546165 -11.74498,9.899895 -4.58605,2.311546 -15.18048,7.653117 -19.721773,10.029167 -0.22655,0.11854 -0.473692,0.46208 -0.564389,0.66038 0,0 0.984182,1.23746 2.060532,2.50325 0.897338,1.05527 1.793381,2.46258 2.290214,3.45195 0.09969,0.19851 0.346103,1.06411 0.491449,1.56513 0.102106,0.35196 -0.07169,0.86723 -0.194189,0.96738 -4.955027,4.05034 -28.443353,23.85913 -35.598421,29.80201 -6.47979,5.38203 -13.44209,10.96567 -19.945548,16.31909 -3.836458,3.15807 -9.603,2.96708 -13.178541,-0.34818 -2.642104,-2.44977 -3.680992,-6.05642 -2.94771,-9.39978 0.276999,-1.26296 0.792616,-2.49135 1.598245,-3.5916 1.014492,-1.3855 2.426684,-2.31647 3.806327,-3.26307 3.283726,-2.25309 6.41641,-4.42873 9.698653,-6.68403 3.210277,-2.20591 6.604034,-4.50478 9.81399,-6.71065 0.771142,-0.52992 1.474339,-1.01221 2.194977,-1.60605 1.542783,-1.27128 1.522336,-3.18448 0.08132,-4.61016 -1.305707,-1.29179 -2.542636,-2.58597 -3.009107,-4.41483 -0.627142,-2.45881 -0.0082,-4.75154 1.816984,-6.48019 3.675267,-3.48081 7.467884,-6.912 11.183716,-10.34943 5.498308,-5.086353 10.660662,-9.969811 16.161262,-15.053947 5.887066,-5.441341 11.154749,-10.333796 17.042493,-15.774109 3.423679,-3.163501 8.174093,-7.478414 11.479376,-10.574996 0.93468,-0.875666 2.11176,-1.804975 2.90102,-2.544441 0.70409,-0.659667 1.74453,-1.489079 2.4709,-2.191581 0.13291,-0.128537 0.24229,-0.259053 0.3316,-0.38591 0.20174,-0.286543 0.3011,-0.554412 0.33793,-0.738612 2.51501,-12.57711 6.32641,-34.187451 7.33514,-46.440482 0.0303,-0.3685872 -0.14878,-0.6824525 -0.36335,-1.0109314 -0.1694,-0.2593287 -0.34843,-0.5339952 -0.55017,-0.8087707 -0.66679,-0.9082124 -1.3688,-1.9070499 -2.05773,-2.8906675 -3.37936,-4.82489641 -10.12731,-13.2231332 -11.27712,-16.0403274 -1.804549,-4.421369 -2.078676,-6.905186 -0.41949,-11.472575 1.27346,-3.505578 2.63377,-6.750318 3.87689,-10.266129 0.59989,-1.696631 -0.14179,-3.063221 -0.93451,-4.088413 -0.54947,-0.710607 -1.27589,-1.161849 -2.5208,-1.217776 -1.11302,-0.05 -1.733473,-0.214858 -2.848246,-0.216088 -15.785041,-0.01748 -31.569731,-0.03656 -47.354772,-0.05045 -13.085937,-0.01151 -26.171522,-0.01242 -39.257462,-0.02611 -12.52749165,-0.0131 -25.054628,-0.03144 -37.581768,-0.05962 -4.106685,-0.0092 -10.288629,-0.204183 -14.373445,-0.519169 -4.996388,-0.385279 -9.226076,-2.587058 -12.042953,-6.809845 -3.47668,-5.2119 -3.842537,-10.801387 -1.260123,-16.509646 2.116586,-4.678576 4.12795,-9.634223 6.312784,-14.27921 1.468533,-3.122121 3.18441,-6.90981 5.413021,-9.66752 1.76588,-2.185122 3.415179,-3.367013 5.801431,-4.85775 4.678123,-2.922513 9.800161,-3.857454 15.240703,-3.688647 3.33692,0.103536 6.683025,-0.120719 10.023475,-0.08078 4.0657652,0.04861 7.8441062,2.933787 9.1581124,6.846007 1.3152482,3.915917 0.37257738,8.572543 -2.7921555,11.049431 -0.3655074,0.286065 -0.8035576,0.590109 -1.3837889,0.831619"
       style="fill:#000000;fill-opacity:1;fill-rule:nonzero;stroke:none;stroke-width:0.352777" /><g
       id="g20"><g
         id="g13"><path
           id="path33"
           d="m 93.908781,-50.199177 c 0.865717,0 1.731433,0 2.596797,0"
           style="fill:#ffffff;fill-opacity:1;fill-rule:nonzero;stroke:none;stroke-width:0.352778" /><path
           id="path34"
           d="m 101.63669,-65.599268 v 2.587625 c -0.0265,-0.0056 -0.0529,-0.01623 -0.0794,-0.01623 -0.79199,-0.0021 -1.583977,-0.0035 -2.376316,-0.0032 -0.0314,0 -0.06315,0.01517 -0.09278,0.02293 v 2.545644 l 0.0053,-0.0049 c -0.865011,0.0021 -1.730022,0.0046 -2.595033,0.0067 v -2.597856 c 0.07338,0.0085 0.146755,0.02399 0.220133,0.02399 0.643114,0.0018 1.285875,0.0011 1.928989,7.06e-4 H 99.0561 v -2.561167 h -2.557639 c 0.0025,-0.8509 -0.0026,-1.683196 -5.35e-4,-2.534448 l 0.0089,-0.02574 c 0.07408,-0.006 0.141285,-0.0028 0.215368,-0.0031 0.688975,-0.0011 1.37795,-7.05e-4 2.066925,-7.05e-4 h 0.270228 c 0.0053,-0.08396 0.01235,-0.143581 0.01235,-0.2032 7.05e-4,-0.498123 -0.0025,-0.995892 3.53e-4,-1.494014 0.0018,-0.292453 0.01199,-0.584906 0.01799,-0.877006 h 2.5467 v 2.587272 h -2.548816 v 2.546703 z"
           style="fill:#ffffff;fill-opacity:1;fill-rule:nonzero;stroke:none;stroke-width:0.352778" /><path
           id="path35"
           d="m 93.953967,-69.574884 c -0.0025,-0.389114 0.0058,-0.77359 -3.1e-5,-1.162704 h 2.546751 c -0.0011,0.863952 -0.0021,1.727905 -0.0032,2.591505 l 0.0059,-0.006 -2.549637,0.0052"
           style="fill:#ffffff;fill-opacity:1;fill-rule:nonzero;stroke:none;stroke-width:0.349981" /><path
           id="path36"
           d="m 101.63669,-55.331001 v 2.587625 c -0.27834,-0.0039 -0.55704,-0.01164 -0.83538,-0.01058 -0.57044,0.0021 -1.141234,0.0088 -1.711675,0.01376 -0.006,-0.551745 -0.01482,-1.103489 -0.01623,-1.655586 -7.06e-4,-0.312914 0.01094,-0.625828 0.01729,-0.938742 0.848783,0.0014 1.697215,0.0025 2.545995,0.0035"
           style="fill:#ffffff;fill-opacity:1;fill-rule:nonzero;stroke:none;stroke-width:0.352778" /><path
           id="path37"
           d="m 101.63669,-60.465116 v 2.587625 c -0.77576,-0.0049 -1.55152,-0.0095 -2.326922,-0.01623 -0.07338,-3.53e-4 -0.146756,-0.01482 -0.220133,-0.02258 -0.006,-0.592314 -0.01446,-1.184627 -0.01623,-1.776941 -7.06e-4,-0.258234 0.01305,-0.516114 0.02011,-0.774347 l -0.0053,0.0053 z"
           style="fill:#ffffff;fill-opacity:1;fill-rule:nonzero;stroke:none;stroke-width:0.352778" /><path
           id="path38"
           d="m 99.090275,-50.199955 2.546345,0.0032"
           style="fill:#ffffff;fill-opacity:1;fill-rule:nonzero;stroke:none;stroke-width:0.352778" /><path
           id="path39"
           d="m 101.63669,-60.465116 -2.548467,0.0028 v -2.545644 c 0.02963,-0.0078 0.06138,-0.02293 0.09278,-0.02328 0.792339,0 1.584327,0.0014 2.376317,0.0032 0.0264,3.52e-4 0.0529,0.01058 0.0794,0.01623 z"
           style="fill:#000000;fill-opacity:1;fill-rule:nonzero;stroke:none;stroke-width:0.352778" /><path
           id="path40"
           d="m 99.089603,-57.916332 c 0.07338,0.0078 0.146756,0.02222 0.220133,0.02258 0.775754,0.0067 1.551164,0.01129 2.326924,0.01623 v 2.546349 c -0.84878,-0.0011 -1.697215,-0.0021 -2.545999,-0.0032 l 0.0039,0.0064 c -0.0063,-0.367241 -0.01835,-0.734836 -0.01764,-1.102077 7.06e-4,-0.49777 0.01094,-0.995539 0.01729,-1.493309 0,0 -0.0046,0.0071 -0.0046,0.0071"
           style="fill:#000000;fill-opacity:1;fill-rule:nonzero;stroke:none;stroke-width:0.352778" /><path
           id="path41"
           d="m 101.63669,-50.196849 -2.54635,-0.0032 0.0042,0.0063 c -0.0063,-0.299156 -0.0187,-0.597958 -0.01799,-0.897114 0.0014,-0.551391 0.01058,-1.102783 0.01658,-1.654175 l -0.0035,0.0049 c 0.570441,-0.0049 1.14123,-0.01199 1.71168,-0.01411 0.27834,-0.0011 0.55704,0.0071 0.83538,0.01058 z"
           style="fill:#000000;fill-opacity:1;fill-rule:nonzero;stroke:none;stroke-width:0.352778" /><path
           id="path42"
           d="m 101.63679,-65.599303 h -2.548817 v -2.546703 h 2.548817 z"
           style="fill:#000000;fill-opacity:1;fill-rule:nonzero;stroke:none;stroke-width:0.352778" /><path
           id="path43"
           d="m 96.505647,-50.199003 -0.0063,0.0053 c 0.865011,0 1.730022,0 2.595033,0 l -0.0042,-0.0063"
           style="fill:#000000;fill-opacity:1;fill-rule:nonzero;stroke:none;stroke-width:0.352778" /><path
           id="path44"
           d="m 96.505647,-50.199003 c -0.865717,0 -1.731433,0 -2.596797,0 0,0 0.0078,0.0049 0.0078,0.0049 0.0067,-0.08079 0.01905,-0.161925 0.01905,-0.242711 0.0014,-0.689681 0.0011,-1.379008 7.06e-4,-2.068689 v -0.249061 c 0.299508,0 0.564797,-0.0014 0.830086,3.53e-4 0.579614,0.0039 1.159227,0.0095 1.738841,0.01446 l -0.0056,-0.0056 c -3.53e-4,0.850547 -3.53e-4,1.701094 -3.53e-4,2.551642 z"
           style="fill:#000000;fill-opacity:1;fill-rule:nonzero;stroke:none;stroke-width:0.352778" /><path
           id="path45"
           d="m 93.916647,-50.194063 -0.0078,-0.0049"
           style="fill:#000000;fill-opacity:1;fill-rule:nonzero;stroke:none;stroke-width:0.352778" /><path
           id="path46"
           d="m 99.093624,-60.46755 c -0.0071,0.258233 -0.02081,0.516114 -0.02011,0.773994 0.0018,0.592667 0.01023,1.184981 0.01623,1.777295 0,0 0.0042,-0.0071 0.0042,-0.0071 -0.05997,0.0092 -0.119945,0.02646 -0.18027,0.02646 -0.752475,0.0021 -1.50495,0.0018 -2.257777,3.52e-4 -0.04586,0 -0.09172,-0.01094 -0.150636,-0.0187 v -2.5527 l -0.0067,0.0071 c 0.865011,-0.0021 1.730022,-0.0046 2.595033,-0.0067"
           style="fill:#000000;fill-opacity:1;fill-rule:nonzero;stroke:none;stroke-width:0.352778" /><path
           id="path47"
           d="m 96.498628,-65.594964 h 2.557286 v 2.561167 c -0.138642,0 -0.273756,0 -0.408517,0 -0.642761,0 -1.285875,0.0011 -1.928636,-7.06e-4 -0.07338,0 -0.147108,-0.01552 -0.220486,-0.02399 l 0.0071,0.0078 c 0,-0.850547 0,-1.700741 0,-2.551289 z"
           style="fill:#000000;fill-opacity:1;fill-rule:nonzero;stroke:none;stroke-width:0.352778" /><path
           id="path48"
           d="m 93.935441,-65.596165 c 0.0077,-0.401461 0.01891,-0.802922 0.02241,-1.204736 0.0042,-0.442736 0.0011,-0.886178 0.0011,-1.346906 h 2.546392 c -0.002,0.8509 -0.0046,1.7018 -0.0066,2.5527 l 0.0066,-0.0071 c -0.858252,3.53e-4 -1.716854,3.53e-4 -2.575106,7.05e-4 z"
           style="fill:#000000;fill-opacity:1;fill-rule:nonzero;stroke:none;stroke-width:0.351468" /><path
           id="path49"
           d="m 96.498345,-63.058528 c 0,0.866069 3.53e-4,1.731786 3.53e-4,2.597855 l 0.0067,-0.0074 h -2.553403 l -0.0041,-2.55946 c 0.719314,0 1.426887,-9.68e-4 2.130326,-0.0032 0.142169,-3.52e-4 0.284691,-0.01305 0.427214,-0.02011 z"
           style="fill:#000000;fill-opacity:1;fill-rule:nonzero;stroke:none;stroke-width:0.352778" /><path
           id="path50"
           d="m 99.090698,-55.334388 c -0.0063,0.312914 -0.01799,0.625828 -0.01729,0.938742 0.0014,0.551744 0.01023,1.103488 0.01623,1.655586 0,0 0.0035,-0.0049 0.0035,-0.0049 -0.864658,0 -1.728963,-3.53e-4 -2.593622,-3.53e-4 l 0.0056,0.0056 c -0.0021,-0.864658 -0.0039,-1.729316 -0.006,-2.594327 0.865363,0.0021 1.730374,0.0039 2.595386,0.006 z"
           style="fill:#000000;fill-opacity:1;fill-rule:nonzero;stroke:none;stroke-width:0.352778" /><path
           id="path51"
           d="m 93.910966,-65.601491 c 0.864658,0 1.729669,-3.53e-4 2.594328,-3.53e-4 0,0.850195 0,1.700742 0,2.550936 -0.14217,0.0071 -0.284692,0.01976 -0.427214,0.02011 -0.703439,0.0021 -1.406525,0.0011 -2.126192,0.0011 v 2.561872 h 2.553406 v 2.5527 c 0.05891,0.0078 0.104775,0.0187 0.150636,0.0187 0.752827,0.0011 1.505302,0.0014 2.257777,-3.53e-4 0.06032,0 0.120298,-0.01729 0.18027,-0.02646 -0.006,0.497769 -0.01623,0.995539 -0.01729,1.493308 -3.53e-4,0.367242 0.01164,0.734484 0.01799,1.101725 -0.865011,-0.0018 -1.730375,-0.0039 -2.595386,-0.0056 l 0.0056,0.0056 v -2.550583 h -2.567869 c 0,0.408869 -0.0021,0.804333 7.05e-4,1.199797 0.0032,0.450145 0.01094,0.900289 0.01658,1.350786 l 0.0056,-0.0049"
           style="fill:#ffffff;fill-opacity:1;fill-rule:nonzero;stroke:none;stroke-width:0.352778" /><path
           id="path52"
           d="m 96.499581,-52.745493 c 0.864658,0 1.728964,3.53e-4 2.593622,3.53e-4 -0.006,0.551391 -0.01517,1.102783 -0.01658,1.654175 -7.06e-4,0.299155 0.01164,0.598311 0.01799,0.897466 -0.865364,0 -1.730375,0 -2.595386,0 0,-0.8509 3.53e-4,-1.701447 3.53e-4,-2.551994"
           style="fill:#ffffff;fill-opacity:1;fill-rule:nonzero;stroke:none;stroke-width:0.352778" /><path
           id="path53"
           d="m 93.932593,-52.75664 v -0.230011 c 0,-0.702381 -0.0011,-1.404761 0.0011,-2.107142 3.52e-4,-0.07973 0.01729,-0.159808 0.02646,-0.239536 l -0.0056,0.0049 h 2.550583 l -0.0056,-0.0056 c 0.0018,0.865011 0.0039,1.729669 0.0056,2.594327 -0.579614,-0.0049 -1.159228,-0.01058 -1.738842,-0.01446 -0.264936,-0.0018 -0.530225,-3.52e-4 -0.829733,-3.52e-4 v 0.249061 c 0,0.68968 7.05e-4,1.379008 -7.06e-4,2.068689 -3.52e-4,0.08079 -0.01235,0.161925 -0.01905,0.242711"
           style="fill:#ffffff;fill-opacity:1;fill-rule:nonzero;stroke:none;stroke-width:0.352778" /><path
           id="path54"
           d="m 96.505047,-55.328321 c -0.850194,0 -1.700389,0 -2.550583,0 -0.0056,-0.450144 -0.01341,-0.900642 -0.01658,-1.350786 -0.0032,-0.395464 -7.05e-4,-0.790928 -7.05e-4,-1.199797 h 2.567869 z"
           style="fill:#000000;fill-opacity:1;fill-rule:nonzero;stroke:none;stroke-width:0.352778" /><path
           id="path17"
           d="m 96.476046,-68.139714 c 0.0078,-0.408817 0.0192,-0.817634 0.02276,-1.22681 0.0042,-0.450848 0.0011,-0.902415 0.0011,-1.371585 h 2.586862 c -0.002,0.866491 -0.0047,1.732981 -0.0067,2.599472 l 0.0067,-0.0072 c -0.871892,3.59e-4 -1.74414,3.59e-4 -2.616032,7.18e-4 z"
           style="fill:#000000;fill-opacity:1;fill-rule:nonzero;stroke:none;stroke-width:0.357481" /></g></g><ellipse
       style="fill:#ffffff;stroke-width:0.199"
       id="path19"
       cx="-26.500866"
       cy="-62.768799"
       rx="1.8708867"
       ry="1.6837981" /><ellipse
       style="fill:#ffffff;stroke-width:0.199"
       id="ellipse34"
       cx="-3.1147823"
       cy="-86.903236"
       rx="1.8708867"
       ry="1.6837981" /><ellipse
       style="fill:#ffffff;stroke-width:0.199"
       id="ellipse35"
       cx="-39.035805"
       cy="-85.59362"
       rx="1.8708867"
       ry="1.6837981" /><ellipse
       style="fill:#ffffff;stroke-width:0.199"
       id="ellipse36"
       cx="-48.494659"
       cy="-44.649349"
       rx="1.8708867"
       ry="1.6837981" /><ellipse
       style="fill:#ffffff;stroke-width:0.199"
       id="ellipse37"
       cx="106.68346"
       cy="-36.579559"
       rx="1.8708867"
       ry="1.6837981" /><ellipse
       style="fill:#ffffff;stroke-width:0.199"
       id="ellipse38"
       cx="102.61549"
       cy="-15.545184"
       rx="1.8708867"
       ry="1.6837981" /><ellipse
       style="fill:#ffffff;stroke-width:0.172616"
       id="ellipse39"
       cx="117.55988"
       cy="9.8017626"
       rx="1.6228398"
       ry="1.4605559" /><ellipse
       style="fill:#ffffff;stroke-width:0.172616"
       id="ellipse40"
       cx="110.49728"
       cy="57.275513"
       rx="1.6228398"
       ry="1.4605559" /><ellipse
       style="fill:#ffffff;stroke-width:0.199"
       id="ellipse41"
       cx="46.550816"
       cy="118.06939"
       rx="1.8708867"
       ry="1.6837981" /><ellipse
       style="fill:#ffffff;stroke-width:0.199"
       id="ellipse42"
       cx="50.748619"
       cy="127.49046"
       rx="1.8708867"
       ry="1.6837981" /><ellipse
       style="fill:#ffffff;stroke-width:0.199"
       id="ellipse43"
       cx="24.228151"
       cy="159.02264"
       rx="1.8708867"
       ry="1.6837981" /><ellipse
       style="fill:#ffffff;stroke-width:0.199"
       id="ellipse44"
       cx="90.175545"
       cy="114.10963"
       rx="1.8708867"
       ry="1.6837981" /><ellipse
       style="fill:#ffffff;stroke-width:0.199"
       id="ellipse45"
       cx="85.743774"
       cy="105.67603"
       rx="1.8708867"
       ry="1.6837981" /><ellipse
       style="fill:#ffffff;stroke-width:0.199"
       id="ellipse46"
       cx="114.61642"
       cy="89.40416"
       rx="1.8708867"
       ry="1.6837981" /><ellipse
       style="fill:#ffffff;stroke-width:0.199"
       id="ellipse47"
       cx="138.89195"
       cy="-22.646883"
       rx="1.8708867"
       ry="1.6837981" /><ellipse
       style="fill:#ffffff;stroke-width:0.199"
       id="ellipse48"
       cx="150.86435"
       cy="-27.475529"
       rx="1.8708867"
       ry="1.6837981" /><ellipse
       style="fill:#ffffff;stroke-width:0.199"
       id="ellipse49"
       cx="148.02008"
       cy="-54.000008"
       rx="1.8708867"
       ry="1.6837981" /></g><metadata
     id="metadata60"><rdf:RDF><cc:Work
         rdf:about=""><dc:title>Balaton Park Circuit</dc:title></cc:Work></rdf:RDF></metadata></svg>
