<?xml version="1.0" encoding="UTF-8" standalone="no"?>
<!-- Created with Inkscape (http://www.inkscape.org/) -->

<svg
   width="755.48981"
   height="507.11093"
   viewBox="0 0 199.89001 134.17325"
   version="1.1"
   id="svg1"
   xml:space="preserve"
   xmlns:xlink="http://www.w3.org/1999/xlink"
   xmlns="http://www.w3.org/2000/svg"
   xmlns:svg="http://www.w3.org/2000/svg"><defs
     id="defs1"><pattern
       xlink:href="#Checkerboard"
       preserveAspectRatio="xMidYMid"
       id="pattern3"
       patternTransform="matrix(2.0217545,0,0,1.310316,11.396753,111.36595)" /><pattern
       style="fill:#000000"
       patternUnits="userSpaceOnUse"
       width="2"
       height="2"
       patternTransform="translate(0,0) scale(10,10)"
       id="Checkerboard"
       preserveAspectRatio="xMidYMid">
      <rect
   style="stroke:none"
   x="0"
   y="0"
   width="1"
   height="1"
   id="rect209" />
      <rect
   style="stroke:none"
   x="1"
   y="1"
   width="1"
   height="1"
   id="rect211" />
    </pattern></defs><g
     id="layer1"
     transform="translate(-4.8232766,-6.304211)"><path
       style="fill:none;stroke:#000000;stroke-width:1.4788;stroke-linecap:butt;stroke-linejoin:round;stroke-dasharray:none;stroke-opacity:1;paint-order:normal"
       d="m 29.190804,123.83629 -9.048515,-54.725866 -0.181352,-0.530109 -0.348754,-0.265051 -0.474305,-0.1395 -0.753309,-0.0419 -1.074163,-0.01397 -0.76726,-0.04182 -0.558006,-0.1116 -0.516157,-0.195309 -0.516156,-0.460351 -0.362704,-0.544059 -0.237153,-0.76726 -0.125551,-0.850959 -0.237153,-1.56242 -0.348752,-2.329671 -0.153453,-1.618221 0.0837,-1.408967 0.209254,-1.381068 0.376655,-1.088111 0.432453,-1.032312 0.474306,-0.906762 0.502206,-0.809108 0.669608,-0.962562 0.711459,-0.83701 0.739358,-0.683557 0.90676,-0.697508 0.906762,-0.697509 1.339214,-0.906761 29.392997,-18.232863 1.2315,-0.736359 1.242896,-0.670769 1.598009,-0.848326 1.282353,-0.67077 1.538824,-0.710226 1.400727,-0.572127 1.400721,-0.591856 1.420454,-0.512941 1.617735,-0.611584 1.815023,-0.591854 1.854483,-0.552399 1.617735,-0.434028 1.598009,-0.315656 1.637468,-0.236742 1.874209,-0.217013 2.051763,-0.118371 h 2.150407 l 1.753776,-0.007 1.70192,0.0558 1.339219,0.251104 1.353161,0.306903 1.506619,0.376655 1.88327,0.544058 1.408969,0.460355 1.71587,0.613807 1.436869,0.627756 1.28341,0.711459 1.074169,0.725407 0.711459,0.488258 0.362701,0.306902 0.79516,-0.850958 0.502201,-0.474306 0.544059,-0.292954 0.544059,-0.153453 0.488251,-0.01396 0.599859,0.12555 0.58591,0.223203 0.627751,0.502205 0.516159,0.390606 0.48826,0.0837 0.46035,0.0558 0.47431,-0.0279 0.83701,-0.181354 0.90676,-0.279003 2.07857,-0.599857 1.74378,-0.558006 1.22761,-0.376655 0.78121,-0.292952 0.68356,-0.306905 0.69751,-0.404554 0.71145,-0.460355 0.79516,-0.599857 0.82306,-0.613807 0.82306,-0.474306 0.99046,-0.390605 1.12997,-0.432456 1.06021,-0.348753 0.96256,-0.279003 1.25551,-0.362704 0.92071,-0.181352 0.93466,-0.195303 1.12997,-0.195302 0.87885,-0.125551 0.99047,-0.237153 0.89281,-0.265054 0.73936,-0.306903 0.75331,-0.432456 0.68355,-0.474306 0.55801,-0.334802 0.54406,-0.279003 0.51615,-0.181354 0.50221,-0.0837 0.4185,-0.01396 0.59986,0.1116 0.3069,0.237153 0.34876,0.362703 0.46035,0.544059 0.40456,0.627756 0.46035,0.585907 0.59986,0.683558 0.44641,0.376654 0.6417,0.251104 0.50221,0.0558 0.58591,0.0558 h 0.43245 l 0.48826,-0.04185 0.57196,-0.09765 0.48825,-0.195302 0.54406,-0.265053 0.68356,-0.390604 0.79516,-0.488255 0.92071,-0.544058 0.87886,-0.460355 0.80911,-0.404554 0.64171,-0.279004 0.62775,-0.223202 0.72541,-0.237153 0.59986,-0.06975 1.07416,-0.1116 1.21367,-0.01396 1.10206,-0.0279 9.69536,-0.111602 0.71146,0.01396 0.61381,0.139501 0.5301,0.181352 0.37666,0.209251 0.57195,0.320854 0.48826,0.376655 0.65565,0.585908 0.59986,0.530106 1.24157,1.478717 0.43245,0.627756 0.46036,0.64171 0.51615,0.725408 0.51616,0.558006 0.57196,0.585908 0.48825,0.418505 0.71146,0.502205 0.58591,0.306902 0.75331,0.320854 0.79516,0.0279 h 0.89281 l 0.72541,-0.0558 0.68355,-0.0279 0.72541,-0.139501 0.68356,-0.320855 0.85096,-0.376653 1.45082,-0.641709 1.35316,-0.599857 0.96257,-0.404554 0.92071,-0.376655 1.01836,-0.418505 1.45082,-0.488257 1.24156,-0.265052 1.07416,-0.167401 1.06022,-0.167403 0.82306,-0.01396 1.26946,0.195303 1.12996,0.181352 0.93467,0.348755 0.87886,0.460355 0.72541,0.488257 0.48825,0.348753 0.58591,0.474306 0.4464,0.446404 0.54406,0.544058 0.53011,0.627756 0.65565,0.976512 0.51616,0.78121 0.40455,0.725407 0.40455,0.850961 0.20926,0.823059 0.1116,0.76726 0.1116,0.87886 0.0139,1.492668 -0.0697,2.036723 -0.29295,1.074162 -0.23715,0.669609 -0.30691,0.697508 -0.39059,0.725409 -0.57197,1.102062 -0.61381,0.850961 -0.6696,0.641707 -0.80911,0.76726 -0.76726,0.683557 -0.92072,0.641707 -0.92071,0.599857 -1.33921,0.655658 -1.59032,0.613807 -1.31132,0.376655 -1.32526,0.111603 -1.19972,0.01396 -1.31131,-0.1116 -1.25552,-0.195303 -1.40896,-0.404554 -1.67402,-0.711459 -1.64611,-0.76726 -1.75773,-0.850958 -1.72982,-1.018364 -1.39501,-0.906759 -1.31132,-0.934661 -1.08811,-0.823061 -1.57637,-1.241564 -1.93907,-1.534518 -1.81353,-1.492668 -1.68796,-1.339214 -1.53453,-1.171814 -1.66006,-1.227616 -1.53452,-1.227614 -1.47872,-1.046261 -1.32527,-0.878863 -1.26946,-0.781208 -1.22762,-0.767258 -1.00441,-0.516156 -0.61381,-0.209254 -0.4464,-0.09765 c 0,0 -0.2511,0.0279 -0.32086,0.04185 -0.0697,0.01396 -0.34875,0.167404 -0.34875,0.167404 l -0.48826,0.418505 -0.85095,0.96256 -1.35317,1.674019 -1.29737,1.757722 -1.71587,2.399427 -1.24156,1.757722 -0.64171,0.92071 -0.71145,0.697508 -0.47431,0.502206 -0.54406,0.502205 -0.54405,0.404557 -0.50221,0.404554 -0.558,0.432455 -0.47431,0.348753 -0.87886,0.418505 -0.89281,0.265054 -0.89281,0.251102 -0.86491,0.167403 -2.77608,0.01396 -6.55658,-0.139501 -1.72982,-0.01396 -1.01836,0.153449 -1.12997,0.251104 -1.08811,0.474307 -0.66961,0.404554 -0.79516,0.544057 -0.73936,0.488255 -0.69751,0.530107 -0.6975,0.530105 -0.55801,0.544058 -0.57196,0.585905 -0.3069,0.446407 -0.44641,0.613807 -0.3627,0.627757 -0.279,0.446406 -0.26506,0.530105 -0.3348,0.683559 -0.32085,0.934662 -0.18136,0.837009 -0.1116,0.90676 -0.0837,0.669608 0.0418,9.709314 0.0697,0.86491 0.1116,0.683558 0.12555,0.544051 0.20926,0.54406 0.40455,0.93466 0.78121,1.632169 0.40456,0.73936 0.4185,0.753309 0.1395,0.320851 0.0698,0.306909 0.014,0.1953 v 0.376651 l -0.15345,0.292959 -0.26506,0.29295 -0.51615,0.460359 -1.86932,1.436861 -2.70634,1.82747 -3.19458,1.966978 -4.01765,2.315729 -1.96698,1.102061 -1.70192,0.86491 -1.24156,0.627759 -0.73936,0.641709 -0.585909,0.753302 -0.320851,0.571959 -0.1395,0.544059 -0.223209,0.86491 -0.02793,0.64171 -0.01397,1.21366 v 1.01836 l 0.18135,1.61822 0.223201,1.408969 0.1674,0.781209 0.09765,0.93466 0.08371,0.94861 0.04182,0.92071 -0.01397,1.046261 -0.02793,1.269468 -0.279001,1.213669 -0.279009,1.12996 -0.32085,0.990461 -0.348759,0.809109 -0.585901,0.86491 -0.390609,0.61381 -0.544051,0.655659 -0.66961,0.683554 -0.739359,0.61381 -0.82306,0.55801 -0.96256,0.48825 -1.185769,0.37666 -1.21366,0.279 -1.71587,0.26506 -1.269469,0.18135 -1.492669,0.1953 -1.701911,0.23715 -1.701928,0.33481 -2.134371,0.37665 -1.82747,0.29295 -2.873738,0.46036 -2.13437,0.39061 -2.608688,0.51615 -3.096931,0.53011 -1.660069,0.20925 -1.478719,0.18135 -0.80911,0.1116 -0.376651,0.1953 -0.195308,0.20926 -0.09765,0.18135 -0.09765,0.23715 0.06975,0.34876 0.1116,0.20925 0.181359,0.2511 0.18135,0.20926 0.195301,0.279 0.474309,0.76726 0.29295,0.5301 0.292951,0.50221 0.153458,0.32085 0.153451,0.71146 0.0837,0.92071 0.585901,4.00369 0.237159,1.45082 v 1.00441 l 0.02793,0.94861 -0.04182,1.01836 -0.04182,0.46036 -0.139508,0.39061 -0.195301,0.18135 -0.3348,0.3069 -0.418509,0.26505 -0.460351,0.18136 -3.264341,1.04626 -1.897221,0.57195 -1.464768,0.39061 -2.064625,0.47431 -2.887684,0.51615 -3.557289,0.62776 -2.748185,0.53011 -3.055085,0.48825 -3.222488,0.59986 -1.213663,0.29295 -0.864912,0.0418 -0.83701,-0.0418 -0.641707,-0.0697 -0.795159,-0.3069 -0.627757,-0.44641 -0.488256,-0.5022 -0.488257,-0.66961 -0.404554,-0.78121 -0.306902,-0.97651 z"
       id="path1" /><g
       id="g3"
       transform="matrix(0.70337,0,0,0.70337,-17.377501,-5.9616253)"><rect
         style="fill:#ffffff;fill-opacity:1;stroke:#000000;stroke-width:0.5;stroke-linecap:square;stroke-linejoin:miter;stroke-dasharray:none;stroke-opacity:1;paint-order:normal"
         id="rect1-1"
         width="20.363518"
         height="5.8593144"
         x="25.240255"
         y="134.65541"
         transform="rotate(-7.4377767)" /><rect
         style="opacity:1;fill:url(#pattern3);fill-opacity:1;stroke:#000000;stroke-width:0.5;stroke-linecap:square;stroke-linejoin:miter;stroke-dasharray:none;stroke-opacity:1;paint-order:normal"
         id="rect1"
         width="20.363518"
         height="5.8593144"
         x="25.185333"
         y="134.64069"
         transform="rotate(-7.4377766)" /></g><path
       style="fill:#ff0000;fill-opacity:1;stroke:#ff0000;stroke-width:0.499999;stroke-linecap:square;stroke-linejoin:miter;stroke-dasharray:none;stroke-opacity:1;paint-order:normal"
       id="path3"
       d="m 42.456015,59.553688 -3.319847,0.571954 -3.319847,0.571954 1.164597,-3.161049 1.164597,-3.161049 2.15525,2.589095 z"
       transform="matrix(0.48076506,0.12631166,0.03429262,1.0297411,-2.1040164,14.723991)" /><path
       style="fill:#ff0000;fill-opacity:1;stroke:#ff0000;stroke-width:0.499999;stroke-linecap:square;stroke-linejoin:miter;stroke-dasharray:none;stroke-opacity:1;paint-order:normal"
       id="path3-6"
       d="m 42.456015,59.553688 -3.319847,0.571954 -3.319847,0.571954 1.164597,-3.161049 1.164597,-3.161049 2.15525,2.589095 z"
       transform="matrix(-0.46671367,-0.17107899,0.0629517,-1.0283871,121.52887,119.76898)" /><path
       style="fill:#ff0000;fill-opacity:1;stroke:#ff0000;stroke-width:0.499999;stroke-linecap:square;stroke-linejoin:miter;stroke-dasharray:none;stroke-opacity:1;paint-order:normal"
       id="path3-2"
       d="m 42.456015,59.553688 -3.319847,0.571954 -3.319847,0.571954 1.164597,-3.161049 1.164597,-3.161049 2.15525,2.589095 z"
       transform="matrix(-0.06504265,0.4928074,-1.0173177,0.16311842,178.6252,-12.559292)" /><g
       id="g4"
       transform="matrix(0.82155632,0,0,0.82155632,-24.707488,-21.286642)"><path
         id="path4"
         style="opacity:1;fill:#ffffff;stroke:#000000;stroke-width:0.3;stroke-linecap:square"
         d="m 65.55708,106.47623 a 4.5625806,4.7066622 0 0 1 -4.562581,4.70666 4.5625806,4.7066622 0 0 1 -4.56258,-4.70666 4.5625806,4.7066622 0 0 1 4.56258,-4.70667 4.5625806,4.7066622 0 0 1 4.562581,4.70667 z" /><path
         style="font-size:8.00972px;-inkscape-font-specification:sans-serif;stroke-width:0.340571;stroke-linecap:square"
         d="m 65.079054,104.89659 h -3.152262 v -0.59447 H 63.1392 v -3.90317 h -1.212408 v -0.5319 q 0.246392,0 0.527984,-0.03911 0.281592,-0.04302 0.426299,-0.121241 0.179905,-0.09777 0.281591,-0.246392 0.105597,-0.152529 0.121241,-0.406744 h 0.606205 v 5.248557 h 1.188942 z"
         id="text4"
         transform="scale(0.96047023,1.0411567)"
         aria-label="1" /></g><g
       id="g5"
       transform="matrix(0.82155632,0,0,0.82155632,-24.707488,-21.286642)"><path
         id="path4-5"
         style="fill:#ffffff;stroke:#000000;stroke-width:0.3;stroke-linecap:square"
         d="m 46.718205,113.70478 a 4.5625806,4.7066622 0 0 1 -4.562581,4.70666 4.5625806,4.7066622 0 0 1 -4.56258,-4.70666 4.5625806,4.7066622 0 0 1 4.56258,-4.70666 4.5625806,4.7066622 0 0 1 4.562581,4.70666 z" /><path
         style="font-size:8.00972px;-inkscape-font-specification:sans-serif;stroke-width:0.340571;stroke-linecap:square"
         d="m 45.797269,111.8394 h -3.942284 v -0.8174 q 0.410655,-0.35199 0.82131,-0.70398 0.414565,-0.35199 0.770466,-0.70006 0.750911,-0.72745 1.028592,-1.15375 0.277681,-0.43021 0.277681,-0.9269 0,-0.45368 -0.301147,-0.70789 -0.297236,-0.25813 -0.833042,-0.25813 -0.355901,0 -0.770467,0.12515 -0.414565,0.12515 -0.809576,0.38328 h -0.03911 v -0.82131 q 0.277681,-0.13688 0.739179,-0.2503 0.465408,-0.11342 0.899529,-0.11342 0.895618,0 1.404047,0.43412 0.50843,0.43021 0.50843,1.16939 0,0.33243 -0.08604,0.62184 -0.08213,0.28551 -0.246393,0.54363 -0.152529,0.24248 -0.359812,0.47714 -0.203371,0.23466 -0.496696,0.52017 -0.418477,0.41065 -0.86433,0.79784 -0.445854,0.38328 -0.833042,0.7118 h 3.132707 z"
         id="text4-7"
         transform="scale(0.96047022,1.0411567)"
         aria-label="2" /></g><path
       id="path4-7"
       style="fill:#ffffff;stroke:#000000;stroke-width:0.246467;stroke-linecap:square"
       d="M 12.443227,52.098323 A 3.7484169,3.8667881 0 0 1 8.6948107,55.96511 3.7484169,3.8667881 0 0 1 4.9463935,52.098323 3.7484169,3.8667881 0 0 1 8.6948107,48.231534 3.7484169,3.8667881 0 0 1 12.443227,52.098323 Z" /><path
       id="path4-7-3"
       style="fill:#ffffff;stroke:none;stroke-width:0.0439026;stroke-linecap:square;stroke-opacity:1"
       d="m 20.520653,68.452489 a 0.66769647,0.68878164 0 0 1 -0.667696,0.688781 0.66769647,0.68878164 0 0 1 -0.667697,-0.688781 0.66769647,0.68878164 0 0 1 0.667697,-0.688782 0.66769647,0.68878164 0 0 1 0.667696,0.688782 z" /><path
       id="path4-7-3-3"
       style="fill:#ffffff;stroke:none;stroke-width:0.0439026;stroke-linecap:square;stroke-opacity:1"
       d="m 15.596751,67.248125 a 0.66769647,0.68878164 0 0 1 -0.667696,0.688781 0.66769647,0.68878164 0 0 1 -0.667697,-0.688781 0.66769647,0.68878164 0 0 1 0.667697,-0.688782 0.66769647,0.68878164 0 0 1 0.667696,0.688782 z" /><path
       id="path4-7-3-1"
       style="fill:#ffffff;stroke:none;stroke-width:0.0439026;stroke-linecap:square;stroke-opacity:1"
       d="m 15.257089,54.649664 a 0.66769647,0.68878164 0 0 1 -0.667696,0.688781 0.66769647,0.68878164 0 0 1 -0.667697,-0.688781 0.66769647,0.68878164 0 0 1 0.667697,-0.688782 0.66769647,0.68878164 0 0 1 0.667696,0.688782 z" /><path
       id="path4-7-3-8"
       style="fill:#ffffff;stroke:none;stroke-width:0.0439026;stroke-linecap:square;stroke-opacity:1"
       d="m 74.096641,21.74741 a 0.66769647,0.68878164 0 0 1 -0.667696,0.688781 0.66769647,0.68878164 0 0 1 -0.667697,-0.688781 0.66769647,0.68878164 0 0 1 0.667697,-0.688782 0.66769647,0.68878164 0 0 1 0.667696,0.688782 z" /><path
       id="path4-7-3-9"
       style="fill:#ffffff;stroke:none;stroke-width:0.0439026;stroke-linecap:square;stroke-opacity:1"
       d="m 95.674013,26.926401 a 0.66769647,0.68878164 0 0 1 -0.667696,0.688781 0.66769647,0.68878164 0 0 1 -0.667697,-0.688781 0.66769647,0.68878164 0 0 1 0.667697,-0.688782 0.66769647,0.68878164 0 0 1 0.667696,0.688782 z" /><path
       id="path4-7-3-33"
       style="fill:#ffffff;stroke:none;stroke-width:0.0439026;stroke-linecap:square;stroke-opacity:1"
       d="m 101.46118,26.61644 a 0.66769647,0.68878164 0 0 1 -0.66769,0.688781 0.66769647,0.68878164 0 0 1 -0.6677,-0.688781 0.66769647,0.68878164 0 0 1 0.6677,-0.688782 0.66769647,0.68878164 0 0 1 0.66769,0.688782 z" /><path
       id="path4-7-3-80"
       style="fill:#ffffff;stroke:none;stroke-width:0.0439026;stroke-linecap:square;stroke-opacity:1"
       d="m 114.08808,21.694305 a 0.66769647,0.68878164 0 0 1 -0.66769,0.688781 0.66769647,0.68878164 0 0 1 -0.6677,-0.688781 0.66769647,0.68878164 0 0 1 0.6677,-0.688782 0.66769647,0.68878164 0 0 1 0.66769,0.688782 z" /><path
       id="path4-7-3-81"
       style="fill:#ffffff;stroke:none;stroke-width:0.0439026;stroke-linecap:square;stroke-opacity:1"
       d="m 130.28442,16.371689 a 0.66769647,0.68878164 0 0 1 -0.66769,0.688781 0.66769647,0.68878164 0 0 1 -0.6677,-0.688781 0.66769647,0.68878164 0 0 1 0.6677,-0.688782 0.66769647,0.68878164 0 0 1 0.66769,0.688782 z" /><path
       id="path4-7-3-2"
       style="fill:#ffffff;stroke:none;stroke-width:0.0439026;stroke-linecap:square;stroke-opacity:1"
       d="m 135.76603,20.219074 a 0.66769647,0.68878164 0 0 1 -0.66769,0.688781 0.66769647,0.68878164 0 0 1 -0.6677,-0.688781 0.66769647,0.68878164 0 0 1 0.6677,-0.688782 0.66769647,0.68878164 0 0 1 0.66769,0.688782 z" /><path
       id="path4-7-3-90"
       style="fill:#ffffff;stroke:none;stroke-width:0.0439026;stroke-linecap:square;stroke-opacity:1"
       d="m 162.17372,18.281579 a 0.66769647,0.68878164 0 0 1 -0.66769,0.688781 0.66769647,0.68878164 0 0 1 -0.6677,-0.688781 0.66769647,0.68878164 0 0 1 0.6677,-0.688782 0.66769647,0.68878164 0 0 1 0.66769,0.688782 z" /><path
       id="path4-7-3-86"
       style="fill:#ffffff;stroke:none;stroke-width:0.0439026;stroke-linecap:square;stroke-opacity:1"
       d="m 169.98373,24.812514 a 0.66769647,0.68878164 0 0 1 -0.66769,0.688781 0.66769647,0.68878164 0 0 1 -0.6677,-0.688781 0.66769647,0.68878164 0 0 1 0.6677,-0.688782 0.66769647,0.68878164 0 0 1 0.66769,0.688782 z" /><path
       id="path4-7-3-5"
       style="fill:#ffffff;stroke:none;stroke-width:0.0439026;stroke-linecap:square;stroke-opacity:1"
       d="m 195.44334,31.89545 a 0.66769647,0.68878164 0 0 1 -0.66769,0.688781 0.66769647,0.68878164 0 0 1 -0.6677,-0.688781 0.66769647,0.68878164 0 0 1 0.6677,-0.688782 0.66769647,0.68878164 0 0 1 0.66769,0.688782 z" /><path
       id="path4-7-3-53"
       style="fill:#ffffff;stroke:none;stroke-width:0.0439026;stroke-linecap:square;stroke-opacity:1"
       d="m 148.36875,23.79802 a 0.66769647,0.68878164 0 0 1 -0.66769,0.688781 0.66769647,0.68878164 0 0 1 -0.6677,-0.688781 0.66769647,0.68878164 0 0 1 0.6677,-0.688782 0.66769647,0.68878164 0 0 1 0.66769,0.688782 z" /><path
       id="path4-7-3-7"
       style="fill:#ffffff;stroke:none;stroke-width:0.0439026;stroke-linecap:square;stroke-opacity:1"
       d="m 135.71572,37.461507 a 0.66769647,0.68878164 0 0 1 -0.66769,0.688781 0.66769647,0.68878164 0 0 1 -0.6677,-0.688781 0.66769647,0.68878164 0 0 1 0.6677,-0.688782 0.66769647,0.68878164 0 0 1 0.66769,0.688782 z" /><path
       style="font-size:8.00972px;-inkscape-font-specification:sans-serif;stroke-width:0.279798;stroke-linecap:square"
       d="m 9.7950398,51.948776 q 0.1481325,0.14385 0.2438002,0.361298 0.09567,0.217448 0.09567,0.562018 0,0.341225 -0.114184,0.62558 -0.1141859,0.284353 -0.3209541,0.49511 -0.231457,0.234174 -0.5462378,0.347916 -0.3116954,0.110396 -0.6851119,0.110396 -0.3826756,0 -0.7530068,-0.10036 -0.3703304,-0.09702 -0.6079596,-0.214102 v -0.699177 h 0.046295 q 0.2623179,0.187339 0.6172179,0.311117 0.3549007,0.123778 0.6851127,0.123778 0.1944231,0 0.4135357,-0.07025 0.2191126,-0.07025 0.3549007,-0.207411 0.1419595,-0.147195 0.2098536,-0.324498 0.070978,-0.177304 0.070978,-0.448277 0,-0.267627 -0.080238,-0.441585 -0.07715,-0.177305 -0.216027,-0.277666 Q 9.0698102,51.998957 8.8723002,51.962159 8.6747903,51.922016 8.4464201,51.922016 H 8.1686717 v -0.555327 h 0.2160266 q 0.4690854,0 0.7468338,-0.210757 0.2808337,-0.214101 0.2808337,-0.622233 0,-0.180649 -0.070978,-0.314462 -0.070978,-0.137159 -0.1975092,-0.224138 -0.132702,-0.08698 -0.2839206,-0.120433 -0.1512186,-0.03345 -0.3425563,-0.03345 -0.2931781,0 -0.6233901,0.113741 -0.3302112,0.113742 -0.6233901,0.321153 h -0.030861 v -0.69918 q 0.2191126,-0.117087 0.5832708,-0.214101 0.3672452,-0.100361 0.7098007,-0.100361 0.3363842,0 0.59253,0.06691 0.2561449,0.06691 0.4629132,0.214102 0.2221987,0.160576 0.3363841,0.38806 0.1141847,0.227484 0.1141847,0.531909 0,0.414823 -0.2715754,0.72594 -0.2684901,0.307772 -0.6357345,0.38806 v 0.04683 q 0.1481317,0.02676 0.3394695,0.113742 0.1913378,0.08363 0.3240398,0.210756 z"
       id="text4-9"
       aria-label="3" /><path
       id="path4-3"
       style="fill:#ffffff;stroke:#000000;stroke-width:0.246467;stroke-linecap:square"
       d="m 77.055424,14.65504 a 3.7484169,3.8667881 0 0 1 -3.748417,3.866788 3.7484169,3.8667881 0 0 1 -3.748416,-3.866788 3.7484169,3.8667881 0 0 1 3.748416,-3.866788 3.7484169,3.8667881 0 0 1 3.748417,3.866788 z" /><path
       style="font-size:8.00972px;-inkscape-font-specification:sans-serif;stroke-width:0.279798;stroke-linecap:square"
       d="m 74.916443,15.502402 h -0.682026 v 1.401699 h -0.592528 v -1.401699 h -2.200382 v -0.769429 l 2.225072,-2.81009 h 0.567838 v 3.044264 h 0.682026 z m -1.274554,-0.535255 v -2.248072 l -1.780671,2.248072 z"
       id="text4-3"
       aria-label="4" /><path
       id="path4-74"
       style="fill:#ffffff;stroke:#000000;stroke-width:0.246467;stroke-linecap:square"
       d="m 94.745634,32.760133 a 3.7484169,3.8667881 0 0 1 -3.748416,3.866788 3.7484169,3.8667881 0 0 1 -3.748417,-3.866788 3.7484169,3.8667881 0 0 1 3.748417,-3.866788 3.7484169,3.8667881 0 0 1 3.748416,3.866788 z" /><path
       style="font-size:8.00972px;-inkscape-font-specification:sans-serif;stroke-width:0.279798;stroke-linecap:square"
       d="m 92.464683,33.426847 q 0,0.347916 -0.117265,0.665724 -0.117273,0.317807 -0.320959,0.535254 -0.222197,0.234175 -0.530806,0.361298 -0.305524,0.123778 -0.709802,0.123778 -0.376501,0 -0.725227,-0.08698 -0.348735,-0.08363 -0.589444,-0.204066 v -0.705868 h 0.04324 q 0.253058,0.173957 0.592528,0.297735 0.339471,0.120433 0.6666,0.120433 0.219112,0 0.422789,-0.06691 0.206771,-0.06691 0.367246,-0.234174 0.135793,-0.14385 0.203685,-0.344571 0.07094,-0.20072 0.07094,-0.465002 0,-0.257592 -0.08333,-0.434895 -0.08023,-0.177304 -0.225283,-0.284355 -0.160475,-0.127122 -0.391928,-0.177302 -0.228376,-0.05353 -0.512295,-0.05353 -0.271578,0 -0.524636,0.04014 -0.249972,0.04014 -0.432053,0.08029 v -2.565879 h 2.765135 v 0.585435 h -2.169521 v 1.324756 q 0.132707,-0.01338 0.271578,-0.02008 0.138878,-0.0067 0.240717,-0.0067 0.373416,0 0.65425,0.07025 0.280834,0.06691 0.51538,0.240865 0.246887,0.183994 0.382672,0.475038 0.135785,0.291046 0.135785,0.729286 z"
       id="text4-2"
       aria-label="5" /><path
       id="path4-9"
       style="fill:#ffffff;stroke:#000000;stroke-width:0.246467;stroke-linecap:square"
       d="m 105.74263,20.349055 a 3.7484169,3.8667881 0 0 1 -3.74842,3.866788 3.7484169,3.8667881 0 0 1 -3.748417,-3.866788 3.7484169,3.8667881 0 0 1 3.748417,-3.866788 3.7484169,3.8667881 0 0 1 3.74842,3.866788 z" /><path
       style="font-size:8.00972px;-inkscape-font-specification:sans-serif;stroke-width:0.279798;stroke-linecap:square"
       d="m 103.56661,20.982323 q 0,0.759393 -0.46291,1.241122 -0.45982,0.478384 -1.12951,0.478384 -0.33947,0 -0.61722,-0.113741 -0.27775,-0.113742 -0.49069,-0.33788 -0.2654,-0.277664 -0.41045,-0.735976 -0.14195,-0.458313 -0.14195,-1.103964 0,-0.662378 0.12961,-1.174215 0.1327,-0.511838 0.41971,-0.909934 0.27157,-0.378024 0.70054,-0.588781 0.42897,-0.214102 0.99989,-0.214102 0.18208,0 0.30553,0.01673 0.12344,0.01672 0.24997,0.06022 v 0.638961 h -0.0309 q -0.0864,-0.05018 -0.26232,-0.09367 -0.17282,-0.04683 -0.3549,-0.04683 -0.66351,0 -1.05853,0.451621 -0.39502,0.448276 -0.45983,1.21436 0.25923,-0.170612 0.50921,-0.257592 0.25306,-0.09032 0.58327,-0.09032 0.29318,0 0.51538,0.06022 0.22528,0.05687 0.45982,0.234174 0.27158,0.204067 0.40737,0.515183 0.13887,0.311117 0.13887,0.756049 z m -0.62647,0.02676 q 0,-0.311116 -0.0864,-0.515183 -0.0833,-0.204066 -0.27774,-0.354606 -0.14196,-0.107051 -0.31479,-0.140504 -0.17281,-0.03345 -0.36106,-0.03345 -0.26232,0 -0.48761,0.06691 -0.22528,0.06691 -0.46291,0.207411 -0.006,0.0736 -0.009,0.14385 -0.003,0.06691 -0.003,0.170613 0,0.528564 0.0988,0.836336 0.10184,0.304426 0.27775,0.481729 0.14196,0.147195 0.30553,0.217447 0.16664,0.06691 0.36106,0.06691 0.44749,0 0.70363,-0.29439 0.25615,-0.297735 0.25615,-0.853063 z"
       id="text4-8"
       aria-label="6" /><path
       id="path4-0"
       style="fill:#ffffff;stroke:#000000;stroke-width:0.246467;stroke-linecap:square"
       d="m 118.71988,28.276235 a 3.7484169,3.8667881 0 0 1 -3.74842,3.866789 3.7484169,3.8667881 0 0 1 -3.74841,-3.866789 3.7484169,3.8667881 0 0 1 3.74841,-3.866788 3.7484169,3.8667881 0 0 1 3.74842,3.866788 z" /><path
       style="font-size:8.00972px;-inkscape-font-specification:sans-serif;stroke-width:0.279798;stroke-linecap:square"
       d="m 116.48831,26.290089 -2.08002,4.235206 h -0.66042 l 2.21272,-4.395783 h -2.617 v -0.585435 h 3.14472 z"
       id="text4-24"
       aria-label="7" /><path
       id="path4-00"
       style="fill:#ffffff;stroke:#000000;stroke-width:0.246467;stroke-linecap:square"
       d="m 134.03634,10.294233 a 3.7484169,3.8667881 0 0 1 -3.74842,3.866788 3.7484169,3.8667881 0 0 1 -3.74842,-3.866788 3.7484169,3.8667881 0 0 1 3.74842,-3.8667882 3.7484169,3.8667881 0 0 1 3.74842,3.8667882 z" /><path
       style="font-size:8.00972px;-inkscape-font-specification:sans-serif;stroke-width:0.279798;stroke-linecap:square"
       d="m 131.82637,11.154976 q 0,0.645652 -0.466,1.073856 -0.46291,0.428204 -1.16654,0.428204 -0.74684,0 -1.19124,-0.418168 -0.44131,-0.418168 -0.44131,-1.070511 0,-0.414822 0.2222,-0.749357 0.22221,-0.337879 0.62648,-0.5352545 V 9.86367 q -0.37033,-0.2141023 -0.54932,-0.4683487 -0.17591,-0.2542455 -0.17591,-0.6356152 0,-0.5620175 0.42588,-0.9366965 0.42588,-0.374678 1.08322,-0.374678 0.68819,0 1.09864,0.3579513 0.41046,0.3579522 0.41046,0.9099337 0,0.3378801 -0.19443,0.6657233 -0.19442,0.3244988 -0.57092,0.5084929 v 0.020076 q 0.43205,0.2007212 0.66042,0.4951112 0.22837,0.29439 0.22837,0.749356 z m -0.7314,-2.4320653 q 0,-0.3579513 -0.25615,-0.5687082 -0.25306,-0.2141023 -0.64808,-0.2141023 -0.38885,0 -0.63882,0.2007209 -0.24689,0.2007208 -0.24689,0.5419455 0,0.240865 0.12344,0.4181684 0.12653,0.1739581 0.37959,0.3111165 0.11419,0.060218 0.32713,0.1572313 0.21603,0.097015 0.41971,0.1605767 0.30552,-0.2207929 0.42279,-0.4583118 0.11728,-0.2375196 0.11728,-0.548637 z m 0.0957,2.4956273 q 0,-0.307772 -0.12653,-0.491766 -0.12344,-0.187339 -0.4876,-0.374679 -0.14504,-0.0736 -0.31787,-0.137159 -0.17282,-0.06356 -0.45982,-0.177303 -0.27775,0.163922 -0.44748,0.444931 -0.16666,0.281009 -0.16666,0.635615 0,0.451622 0.28701,0.746012 0.28701,0.29439 0.72832,0.29439 0.45057,0 0.71906,-0.250901 0.27157,-0.2509 0.27157,-0.68914 z"
       id="text4-6"
       aria-label="8" /><path
       id="path4-4"
       style="fill:#ffffff;stroke:#000000;stroke-width:0.246467;stroke-linecap:square"
       d="m 138.47456,26.170781 a 3.7484169,3.8667881 0 0 1 -3.74842,3.866788 3.7484169,3.8667881 0 0 1 -3.74842,-3.866788 3.7484169,3.8667881 0 0 1 3.74842,-3.866788 3.7484169,3.8667881 0 0 1 3.74842,3.866788 z" /><path
       style="font-size:8.00972px;-inkscape-font-specification:sans-serif;stroke-width:0.279798;stroke-linecap:square"
       d="m 136.22447,25.629828 q 0,0.652342 -0.13888,1.184252 -0.13578,0.53191 -0.41353,0.906589 -0.28084,0.381369 -0.70363,0.58878 -0.4228,0.207412 -0.99372,0.207412 -0.16048,0 -0.30244,-0.02008 -0.14196,-0.01672 -0.25306,-0.05687 V 27.80095 h 0.0309 q 0.0895,0.05018 0.25306,0.09701 0.16356,0.04349 0.36416,0.04349 0.68203,0 1.06778,-0.441585 0.38886,-0.444931 0.45058,-1.224396 -0.28701,0.187339 -0.54007,0.267628 -0.25306,0.08028 -0.55241,0.08028 -0.28392,0 -0.51538,-0.06022 -0.22836,-0.06022 -0.45982,-0.234175 -0.27158,-0.204066 -0.41045,-0.518528 -0.13579,-0.314462 -0.13579,-0.752702 0,-0.762739 0.46291,-1.241123 0.46291,-0.478384 1.12951,-0.478384 0.3333,0 0.61722,0.113742 0.28392,0.110396 0.49686,0.334534 0.26231,0.277663 0.40428,0.715903 0.14196,0.434895 0.14196,1.127381 z m -0.6234,-0.14385 q 0,-0.518528 -0.0987,-0.832991 -0.0987,-0.314461 -0.27158,-0.488419 -0.14504,-0.150541 -0.31169,-0.214103 -0.16665,-0.06691 -0.36107,-0.06691 -0.4444,0 -0.70363,0.301082 -0.25615,0.30108 -0.25615,0.846372 0,0.317807 0.0833,0.518528 0.0833,0.200721 0.28085,0.351261 0.13887,0.103706 0.30551,0.140505 0.16665,0.03345 0.37033,0.03345 0.24072,0 0.48761,-0.07025 0.24688,-0.07025 0.46291,-0.204066 0.003,-0.07025 0.006,-0.13716 0.006,-0.07025 0.006,-0.177303 z"
       id="text4-4"
       aria-label="9" /><path
       id="path4-49"
       style="fill:#ffffff;stroke:#000000;stroke-width:0.246467;stroke-linecap:square"
       d="m 170.6004,14.611687 a 3.7484169,3.8667881 0 0 1 -3.74843,3.866789 3.7484169,3.8667881 0 0 1 -3.74841,-3.866789 3.7484169,3.8667881 0 0 1 3.74841,-3.866788 3.7484169,3.8667881 0 0 1 3.74843,3.866788 z" /><path
       style="font-size:6.55551px;-inkscape-font-specification:sans-serif;stroke-width:0.228999;stroke-linecap:square"
       d="m 166.19175,16.607764 h -2.03578 v -0.416172 h 0.78299 V 13.45909 h -0.78299 v -0.372365 q 0.15912,0 0.34098,-0.02738 0.18185,-0.03012 0.27531,-0.08488 0.11619,-0.06845 0.18185,-0.172493 0.0682,-0.106781 0.0783,-0.284749 h 0.3915 v 3.674367 h 0.76784 z m 3.49823,-2.039794 q 0,1.09793 -0.31825,1.61267 -0.31573,0.512002 -0.98254,0.512002 -0.67691,0 -0.9901,-0.520216 -0.31068,-0.520216 -0.31068,-1.59898 0,-1.086977 0.31573,-1.604454 0.31572,-0.520216 0.98505,-0.520216 0.67692,0 0.98759,0.52843 0.3132,0.525692 0.3132,1.590764 z m -0.66428,1.243043 q 0.0884,-0.221777 0.11871,-0.520216 0.0328,-0.301178 0.0328,-0.722827 0,-0.416172 -0.0328,-0.722826 -0.0303,-0.306653 -0.12124,-0.520215 -0.0884,-0.210825 -0.24248,-0.317606 -0.15155,-0.106781 -0.3915,-0.106781 -0.23742,0 -0.39402,0.106781 -0.15407,0.106781 -0.245,0.323082 -0.0859,0.20261 -0.11872,0.52843 -0.0303,0.325819 -0.0303,0.714611 0,0.427125 0.0278,0.714613 0.0278,0.287488 0.11872,0.51474 0.0833,0.213562 0.23489,0.325819 0.15408,0.112257 0.40665,0.112257 0.23743,0 0.39403,-0.106781 0.1566,-0.10678 0.24248,-0.323081 z"
       id="text4-63"
       aria-label="10" /><path
       id="path4-49-3"
       style="fill:#ffffff;stroke:#000000;stroke-width:0.246467;stroke-linecap:square"
       d="m 177.35116,30.559271 a 3.7484169,3.8667881 0 0 1 -3.74842,3.866788 3.7484169,3.8667881 0 0 1 -3.74841,-3.866788 3.7484169,3.8667881 0 0 1 3.74841,-3.866788 3.7484169,3.8667881 0 0 1 3.74842,3.866788 z" /><path
       style="font-size:6.55551px;-inkscape-font-specification:sans-serif;stroke-width:0.228999;stroke-linecap:square"
       d="m 172.94251,32.555347 h -2.03579 v -0.416172 h 0.783 v -2.732502 h -0.783 v -0.372366 q 0.15913,0 0.34099,-0.02738 0.18185,-0.03012 0.27531,-0.08488 0.11618,-0.06845 0.18186,-0.172493 0.0682,-0.106781 0.0783,-0.28475 h 0.3915 v 3.674367 h 0.76784 z m 3.28859,0 h -2.03579 v -0.416172 h 0.783 v -2.732502 h -0.783 v -0.372366 q 0.15912,0 0.34098,-0.02738 0.18186,-0.03012 0.27531,-0.08488 0.11619,-0.06845 0.18186,-0.172493 0.0682,-0.106781 0.0783,-0.28475 h 0.3915 v 3.674367 h 0.76784 z"
       id="text4-63-5"
       aria-label="11" /><path
       id="path4-49-6"
       style="fill:#ffffff;stroke:#000000;stroke-width:0.246467;stroke-linecap:square"
       d="m 204.59015,31.821892 a 3.7484169,3.8667881 0 0 1 -3.74841,3.866788 3.7484169,3.8667881 0 0 1 -3.74842,-3.866788 3.7484169,3.8667881 0 0 1 3.74842,-3.866788 3.7484169,3.8667881 0 0 1 3.74841,3.866788 z" /><path
       style="font-size:6.55551px;-inkscape-font-specification:sans-serif;stroke-width:0.228999;stroke-linecap:square"
       d="m 200.18153,33.817968 h -2.0358 v -0.416173 h 0.783 v -2.732502 h -0.783 v -0.372365 q 0.15913,0 0.34098,-0.02738 0.18186,-0.03012 0.27531,-0.08488 0.1162,-0.06845 0.18186,-0.172493 0.0682,-0.106781 0.0783,-0.284749 h 0.3915 v 3.674367 h 0.76784 z m 3.50327,0 h -2.546 v -0.572237 q 0.26521,-0.246418 0.53042,-0.492837 0.26773,-0.246418 0.49758,-0.490098 0.48495,-0.509263 0.66428,-0.807703 0.17933,-0.301178 0.17933,-0.648901 0,-0.317605 -0.19448,-0.495574 -0.19196,-0.180706 -0.538,-0.180706 -0.22984,0 -0.49758,0.08761 -0.26773,0.08762 -0.52284,0.268323 h -0.0252 v -0.574976 q 0.17933,-0.09583 0.47737,-0.175231 0.30057,-0.0794 0.58094,-0.0794 0.5784,0 0.90676,0.303916 0.32835,0.301178 0.32835,0.818656 0,0.232728 -0.0555,0.435338 -0.053,0.199873 -0.15913,0.38058 -0.0985,0.169754 -0.23237,0.334032 -0.13134,0.164279 -0.32077,0.364151 -0.27026,0.287488 -0.55821,0.558548 -0.28793,0.268322 -0.53799,0.498312 h 2.02316 z"
       id="text4-63-3"
       aria-label="12" /><ellipse
       style="fill:#ffffff;fill-opacity:1;stroke:#000000;stroke-width:0.246467;stroke-linecap:square;stroke-linejoin:miter;stroke-dasharray:none;stroke-opacity:1;paint-order:normal"
       id="path4-49-0"
       cx="149.17635"
       cy="31.862652"
       rx="3.7484169"
       ry="3.8667881" /><path
       style="font-size:6.55551px;-inkscape-font-specification:sans-serif;stroke-width:0.228999;stroke-linecap:square"
       d="m 148.51612,33.858729 h -2.03579 v -0.416173 h 0.78299 v -2.732501 h -0.78299 v -0.372366 q 0.15912,0 0.34098,-0.02738 0.18186,-0.03012 0.27531,-0.08488 0.11619,-0.06845 0.18186,-0.172492 0.0682,-0.106782 0.0783,-0.28475 h 0.3915 v 3.674366 h 0.76784 z m 3.17239,-1.963131 q 0.12124,0.117733 0.19954,0.295702 0.0783,0.177969 0.0783,0.459981 0,0.279274 -0.0935,0.512001 -0.0935,0.232728 -0.26267,0.405221 -0.18944,0.191658 -0.44707,0.28475 -0.25511,0.09035 -0.56073,0.09035 -0.3132,0 -0.61629,-0.08214 -0.3031,-0.0794 -0.49759,-0.175231 v -0.572237 h 0.0379 q 0.21469,0.153327 0.50515,0.254632 0.29047,0.101306 0.56073,0.101306 0.15913,0 0.33845,-0.0575 0.17934,-0.0575 0.29047,-0.169755 0.11619,-0.120471 0.17176,-0.265583 0.0581,-0.145114 0.0581,-0.366889 0,-0.219039 -0.0657,-0.361414 -0.0631,-0.145113 -0.17681,-0.227252 -0.11365,-0.08488 -0.27531,-0.114995 -0.16165,-0.03285 -0.34856,-0.03285 h -0.22732 V 31.41919 h 0.17681 q 0.38392,0 0.61123,-0.172493 0.22986,-0.17523 0.22986,-0.509264 0,-0.147851 -0.0581,-0.25737 -0.0581,-0.112257 -0.16165,-0.183444 -0.10861,-0.07119 -0.23238,-0.09857 -0.12376,-0.02738 -0.28036,-0.02738 -0.23995,0 -0.51021,0.09309 -0.27026,0.09309 -0.51021,0.262846 h -0.0252 V 29.95437 q 0.17933,-0.09583 0.47738,-0.17523 0.30056,-0.08214 0.58093,-0.08214 0.27531,0 0.48495,0.05476 0.20964,0.05476 0.37887,0.175231 0.18186,0.131423 0.27531,0.317605 0.0935,0.186183 0.0935,0.435339 0,0.339509 -0.22227,0.594141 -0.21975,0.251894 -0.52032,0.317606 v 0.03833 q 0.12124,0.02191 0.27784,0.09309 0.15659,0.06845 0.2652,0.172492 z m 2.11915,1.182807 -0.71228,1.793376 h -0.36876 l 0.43948,-1.793376 z"
       id="text4-63-9"
       aria-label="13," /><ellipse
       style="fill:#ffffff;fill-opacity:1;stroke:#000000;stroke-width:0.246467;stroke-linecap:square;stroke-linejoin:miter;stroke-dasharray:none;stroke-opacity:1;paint-order:normal"
       id="path4-49-01"
       cx="136.56804"
       cy="43.935913"
       rx="3.7484169"
       ry="3.8667881" /><path
       style="font-size:6.55551px;-inkscape-font-specification:sans-serif;stroke-width:0.228999;stroke-linecap:square"
       d="m 135.90782,45.931991 h -2.03579 v -0.416173 h 0.783 v -2.732501 h -0.783 v -0.372365 q 0.15913,0 0.34099,-0.02738 0.18185,-0.03012 0.27531,-0.08488 0.11618,-0.06845 0.18186,-0.172492 0.0682,-0.106782 0.0783,-0.28475 h 0.3915 v 3.674366 h 0.76784 z m 3.58915,-1.147213 h -0.5582 v 1.147213 h -0.48495 v -1.147213 h -1.80089 v -0.629734 l 1.8211,-2.299903 h 0.46474 v 2.491561 h 0.5582 z m -1.04315,-0.438076 V 42.50678 l -1.45738,1.839922 z"
       id="text4-63-6"
       aria-label="14" /><ellipse
       style="fill:#ffffff;fill-opacity:1;stroke:#000000;stroke-width:0.246467;stroke-linecap:square;stroke-linejoin:miter;stroke-dasharray:none;stroke-opacity:1;paint-order:normal"
       id="path4-49-2"
       cx="107.60683"
       cy="41.005871"
       rx="3.7484169"
       ry="3.8667881" /><path
       style="font-size:6.55551px;-inkscape-font-specification:sans-serif;stroke-width:0.228999;stroke-linecap:square"
       d="m 106.94661,43.001946 h -2.03579 v -0.416173 h 0.783 V 39.85327 h -0.783 v -0.372364 q 0.15913,0 0.34098,-0.02738 0.18186,-0.03012 0.27531,-0.08488 0.11619,-0.06845 0.18186,-0.172492 0.0682,-0.106781 0.0783,-0.284749 h 0.3915 v 3.674366 h 0.76784 z m 3.47297,-1.295064 q 0,0.28475 -0.096,0.544857 -0.096,0.260109 -0.26268,0.438077 -0.18186,0.191659 -0.43444,0.295701 -0.25005,0.101306 -0.58094,0.101306 -0.30814,0 -0.59356,-0.07118 -0.28541,-0.06845 -0.48242,-0.167017 v -0.577713 h 0.0353 q 0.20712,0.142375 0.48495,0.24368 0.27784,0.09857 0.54557,0.09857 0.17934,0 0.34604,-0.05476 0.16923,-0.05476 0.30057,-0.191658 0.11113,-0.117733 0.1667,-0.282012 0.0581,-0.164279 0.0581,-0.380579 0,-0.210825 -0.0682,-0.355937 -0.0657,-0.145114 -0.18439,-0.232729 -0.13134,-0.104043 -0.32077,-0.145113 -0.18691,-0.0438 -0.41928,-0.0438 -0.22228,0 -0.42939,0.03286 -0.20459,0.03285 -0.35361,0.06571 v -2.10003 h 2.26311 v 0.479144 h -1.77562 v 1.084239 q 0.10861,-0.01095 0.22227,-0.01643 0.11366,-0.0055 0.19701,-0.0055 0.30562,0 0.53547,0.0575 0.22984,0.05476 0.4218,0.197134 0.20207,0.150589 0.3132,0.388793 0.11114,0.238204 0.11114,0.596879 z"
       id="text4-63-0"
       aria-label="15" /><ellipse
       style="fill:#ffffff;fill-opacity:1;stroke:#000000;stroke-width:0.246467;stroke-linecap:square;stroke-linejoin:miter;stroke-dasharray:none;stroke-opacity:1;paint-order:normal"
       id="path4-49-7"
       cx="117.05858"
       cy="60.779419"
       rx="3.7484169"
       ry="3.8667881" /><path
       style="font-size:6.55551px;-inkscape-font-specification:sans-serif;stroke-width:0.228999;stroke-linecap:square"
       d="m 116.39836,62.775492 h -2.03579 V 62.35932 h 0.783 v -2.732503 h -0.783 v -0.372365 q 0.15913,0 0.34098,-0.02738 0.18186,-0.03012 0.27531,-0.08488 0.11619,-0.06845 0.18186,-0.172492 0.0682,-0.106781 0.0783,-0.28475 h 0.39151 v 3.674367 h 0.76784 z m 3.55884,-1.322443 q 0,0.621521 -0.37887,1.015789 -0.37634,0.391531 -0.92444,0.391531 -0.27784,0 -0.50515,-0.09309 -0.22733,-0.09309 -0.40161,-0.276535 -0.21721,-0.227253 -0.33593,-0.602356 -0.11619,-0.375103 -0.11619,-0.903532 0,-0.54212 0.10609,-0.961031 0.10861,-0.41891 0.34351,-0.74473 0.22227,-0.309392 0.57335,-0.481885 0.35109,-0.17523 0.81836,-0.17523 0.14902,0 0.25005,0.01369 0.10103,0.01369 0.20459,0.04929 v 0.522953 h -0.0252 q -0.0707,-0.04107 -0.21469,-0.07667 -0.14144,-0.03833 -0.29047,-0.03833 -0.54304,0 -0.86635,0.369627 -0.3233,0.366889 -0.37634,0.993886 0.21217,-0.139637 0.41676,-0.210824 0.20711,-0.07392 0.47737,-0.07392 0.23995,0 0.42181,0.04929 0.18439,0.04655 0.37634,0.191659 0.22227,0.167017 0.33341,0.421648 0.11366,0.254632 0.11366,0.618784 z m -0.51274,0.02191 q 0,-0.254633 -0.0707,-0.421649 -0.0682,-0.167017 -0.22733,-0.290226 -0.11618,-0.08762 -0.25762,-0.114995 -0.14145,-0.02738 -0.29552,-0.02738 -0.21469,0 -0.39908,0.05476 -0.18438,0.05476 -0.37887,0.169755 -0.005,0.06024 -0.008,0.117733 -0.002,0.05476 -0.002,0.139637 0,0.4326 0.0808,0.684495 0.0834,0.249156 0.22732,0.394268 0.11619,0.120471 0.25005,0.177969 0.13639,0.05476 0.29552,0.05476 0.36624,0 0.57588,-0.240942 0.20964,-0.24368 0.20964,-0.698184 z"
       id="text4-63-1"
       aria-label="16" /><ellipse
       style="fill:#ffffff;fill-opacity:1;stroke:#000000;stroke-width:0.246467;stroke-linecap:square;stroke-linejoin:miter;stroke-dasharray:none;stroke-opacity:1;paint-order:normal"
       id="path4-49-5"
       cx="118.50552"
       cy="70.531715"
       rx="3.7484169"
       ry="3.8667881" /><path
       style="font-size:6.55551px;-inkscape-font-specification:sans-serif;stroke-width:0.228999;stroke-linecap:square"
       d="m 117.84531,72.527795 h -2.03579 v -0.416171 h 0.783 v -2.732502 h -0.783 v -0.372367 q 0.15913,0 0.34099,-0.02737 0.18186,-0.03011 0.27531,-0.08485 0.11618,-0.06843 0.18186,-0.172494 0.0682,-0.106775 0.0783,-0.284743 h 0.39149 v 3.674365 h 0.76784 z m 3.51338,-3.46628 -1.70238,3.46628 h -0.54052 l 1.81099,-3.597707 h -2.14187 v -0.479144 h 2.57378 z"
       id="text4-63-99"
       aria-label="17" /><ellipse
       style="fill:#ffffff;fill-opacity:1;stroke:#000000;stroke-width:0.246467;stroke-linecap:square;stroke-linejoin:miter;stroke-dasharray:none;stroke-opacity:1;paint-order:normal"
       id="path4-49-60"
       cx="100.09348"
       cy="83.683617"
       rx="3.7484169"
       ry="3.8667881" /><path
       style="font-size:6.55551px;-inkscape-font-specification:sans-serif;stroke-width:0.228999;stroke-linecap:square"
       d="m 99.433265,85.679699 h -2.035796 v -0.416172 h 0.782997 v -2.732501 h -0.782997 v -0.372368 q 0.159126,0 0.340986,-0.02737 0.181859,-0.03011 0.27531,-0.08485 0.116192,-0.06843 0.181859,-0.172494 0.06818,-0.106776 0.07828,-0.284744 h 0.391494 v 3.674366 h 0.767846 z m 3.531055,-1.136264 q 0,0.52843 -0.38139,0.878892 -0.37887,0.350461 -0.95475,0.350461 -0.61125,0 -0.97496,-0.34225 -0.36119,-0.342241 -0.36119,-0.876146 0,-0.339513 0.18186,-0.613308 0.18186,-0.27654 0.51273,-0.438077 v -0.01642 q -0.30309,-0.175231 -0.44959,-0.383316 -0.14397,-0.208086 -0.14397,-0.520218 0,-0.459975 0.34856,-0.766633 0.34856,-0.30665 0.88656,-0.30665 0.56325,0 0.89918,0.292964 0.33593,0.292964 0.33593,0.744727 0,0.27654 -0.15913,0.544861 -0.15912,0.265584 -0.46727,0.416171 v 0.01642 q 0.35361,0.164274 0.54052,0.405214 0.18691,0.240949 0.18691,0.613308 z m -0.59861,-1.990512 q 0,-0.292963 -0.20964,-0.465449 -0.20711,-0.17523 -0.53042,-0.17523 -0.31825,0 -0.52284,0.164273 -0.20206,0.164282 -0.20206,0.443552 0,0.197137 0.10103,0.34225 0.10355,0.142376 0.31067,0.254635 0.0935,0.04927 0.26774,0.128681 0.1768,0.07938 0.34351,0.131419 0.25005,-0.180705 0.34602,-0.375096 0.096,-0.1944 0.096,-0.449035 z m 0.0783,2.042536 q 0,-0.251898 -0.10356,-0.402486 -0.10104,-0.153324 -0.39908,-0.306649 -0.11871,-0.06022 -0.26015,-0.112259 -0.14145,-0.05201 -0.37635,-0.145113 -0.22732,0.134164 -0.36624,0.364147 -0.13639,0.229992 -0.13639,0.520219 0,0.36963 0.2349,0.610571 0.2349,0.24094 0.59609,0.24094 0.36876,0 0.58851,-0.205349 0.22227,-0.205348 0.22227,-0.564021 z"
       id="text4-63-38"
       aria-label="18" /><ellipse
       style="fill:#ffffff;fill-opacity:1;stroke:#000000;stroke-width:0.246467;stroke-linecap:square;stroke-linejoin:miter;stroke-dasharray:none;stroke-opacity:1;paint-order:normal"
       id="path4-49-4"
       cx="99.359009"
       cy="100.52225"
       rx="3.7484169"
       ry="3.8667881" /><path
       style="font-size:6.55551px;-inkscape-font-specification:sans-serif;stroke-width:0.228999;stroke-linecap:square"
       d="m 98.698789,102.51833 h -2.035796 v -0.41617 h 0.782997 v -2.732505 h -0.782997 v -0.372368 q 0.159126,0 0.340985,-0.02737 0.18186,-0.03011 0.275311,-0.08485 0.116184,-0.06843 0.181859,-0.172494 0.06818,-0.106784 0.07828,-0.284752 h 0.391494 v 3.674359 h 0.767846 z m 3.498221,-2.28347 q 0,0.5339 -0.11366,0.96924 -0.11114,0.43534 -0.33846,0.74199 -0.22984,0.31213 -0.57588,0.48189 -0.34603,0.16975 -0.8133,0.16975 -0.13134,0 -0.24753,-0.0164 -0.116191,-0.0137 -0.207117,-0.0465 v -0.52296 h 0.02525 q 0.07323,0.0411 0.207117,0.0794 0.13386,0.0356 0.29805,0.0356 0.55819,0 0.87392,-0.36141 0.31825,-0.36415 0.36876,-1.0021 -0.23489,0.15333 -0.44201,0.21904 -0.20712,0.0657 -0.45212,0.0657 -0.23237,0 -0.4218,-0.0493 -0.18691,-0.0493 -0.37635,-0.19166 -0.222268,-0.16702 -0.335927,-0.42438 -0.111142,-0.25738 -0.111142,-0.61605 0,-0.624265 0.378869,-1.015793 0.37887,-0.391528 0.92445,-0.391528 0.27278,0 0.50515,0.09309 0.23238,0.09035 0.40665,0.273795 0.2147,0.227254 0.33088,0.585927 0.11619,0.355937 0.11619,0.922699 z m -0.51021,-0.11773 q 0,-0.424394 -0.0808,-0.681766 -0.0808,-0.257363 -0.22226,-0.399739 -0.11872,-0.123216 -0.25511,-0.175231 -0.1364,-0.05474 -0.29552,-0.05474 -0.36371,0 -0.57588,0.246415 -0.20964,0.246423 -0.20964,0.692712 0,0.260109 0.0682,0.424379 0.0682,0.16428 0.22985,0.28749 0.11366,0.0849 0.25006,0.115 0.13639,0.0274 0.30309,0.0274 0.19701,0 0.39908,-0.0575 0.20206,-0.0575 0.37886,-0.16702 0.002,-0.0575 0.005,-0.11226 0.005,-0.0575 0.005,-0.14511 z"
       id="text4-63-7"
       aria-label="19" /><ellipse
       style="fill:#ffffff;fill-opacity:1;stroke:#000000;stroke-width:0.246467;stroke-linecap:square;stroke-linejoin:miter;stroke-dasharray:none;stroke-opacity:1;paint-order:normal"
       id="path4-49-1"
       cx="53.673977"
       cy="105.30013"
       rx="3.7484169"
       ry="3.8667881" /><path
       style="font-size:5.23131px;-inkscape-font-specification:sans-serif;stroke-width:0.182742;stroke-linecap:square"
       d="m 53.280212,106.77305 h -2.151355 v -0.43126 q 0.2241,-0.1857 0.448199,-0.37141 0.226234,-0.1857 0.420453,-0.36935 0.409782,-0.38379 0.561316,-0.6087 0.151534,-0.22697 0.151534,-0.48902 0,-0.23936 -0.16434,-0.37348 -0.162205,-0.13619 -0.454602,-0.13619 -0.194219,0 -0.420453,0.066 -0.226233,0.066 -0.441795,0.20221 h -0.02134 v -0.43332 q 0.151534,-0.0722 0.403379,-0.13205 0.253979,-0.0599 0.490884,-0.0599 0.48875,0 0.766207,0.22903 0.277456,0.22698 0.277456,0.61696 0,0.17539 -0.04696,0.32808 -0.04482,0.15063 -0.13446,0.28682 -0.08324,0.12793 -0.196354,0.25173 -0.110983,0.12381 -0.271053,0.27444 -0.228369,0.21665 -0.471676,0.42092 -0.243307,0.20222 -0.454601,0.37555 h 1.709558 z m 2.774562,-1.53724 q 0,0.82742 -0.268919,1.21534 -0.266785,0.38587 -0.830234,0.38587 -0.571987,0 -0.836638,-0.39205 -0.262517,-0.39205 -0.262517,-1.20503 0,-0.81917 0.266786,-1.20916 0.266785,-0.39205 0.832369,-0.39205 0.571987,0 0.834503,0.39824 0.26465,0.39618 0.26465,1.19884 z m -0.561315,0.93678 q 0.0747,-0.16713 0.100311,-0.39204 0.02775,-0.22697 0.02775,-0.54474 0,-0.31364 -0.02775,-0.54474 -0.02561,-0.2311 -0.102445,-0.39205 -0.0747,-0.15888 -0.204891,-0.23935 -0.128057,-0.0805 -0.330813,-0.0805 -0.200623,0 -0.332948,0.0805 -0.130191,0.0805 -0.207025,0.24348 -0.07257,0.1527 -0.100311,0.39824 -0.02561,0.24554 -0.02561,0.53855 0,0.32189 0.02348,0.53854 0.02348,0.21666 0.100312,0.38792 0.07043,0.16095 0.198487,0.24555 0.130192,0.0846 0.34362,0.0846 0.200622,0 0.332947,-0.0804 0.132325,-0.0805 0.204891,-0.24349 z"
       id="text4-63-64"
       aria-label="20" /><ellipse
       style="fill:#ffffff;fill-opacity:1;stroke:#000000;stroke-width:0.246467;stroke-linecap:square;stroke-linejoin:miter;stroke-dasharray:none;stroke-opacity:1;paint-order:normal"
       id="path4-49-1-4"
       cx="66.801643"
       cy="126.58527"
       rx="3.7484169"
       ry="3.8667881" /><path
       style="font-size:5.23131px;-inkscape-font-specification:sans-serif;stroke-width:0.182742;stroke-linecap:square"
       d="m 66.40786,128.05819 h -2.15135 v -0.43125 q 0.224094,-0.18571 0.448196,-0.37141 0.226233,-0.18571 0.420456,-0.36935 0.409777,-0.38379 0.561312,-0.60871 0.151534,-0.22697 0.151534,-0.48903 0,-0.23935 -0.164335,-0.37347 -0.162205,-0.13618 -0.454604,-0.13618 -0.194223,0 -0.420456,0.066 -0.226232,0.066 -0.441795,0.20221 h -0.02131 v -0.43331 q 0.151535,-0.0722 0.403377,-0.13206 0.253981,-0.0599 0.490884,-0.0599 0.488753,0 0.766205,0.22904 0.27746,0.22697 0.27746,0.61696 0,0.17539 -0.04696,0.32808 -0.04479,0.15063 -0.134456,0.28681 -0.08322,0.12793 -0.196354,0.25174 -0.110985,0.1238 -0.271051,0.27443 -0.228372,0.21665 -0.471683,0.42093 -0.243303,0.20222 -0.454596,0.37554 h 1.709554 z m 2.597422,0 H 67.28505 v -0.31363 h 0.661628 v -2.05928 H 67.28505 v -0.28063 q 0.134456,0 0.28813,-0.0206 0.153665,-0.0227 0.232633,-0.064 0.09818,-0.0516 0.153674,-0.13 0.05765,-0.0804 0.06618,-0.21459 h 0.33081 v 2.76909 h 0.648827 z"
       id="text4-63-64-1"
       aria-label="21" /><ellipse
       style="fill:#ffffff;fill-opacity:1;stroke:#000000;stroke-width:0.246467;stroke-linecap:square;stroke-linejoin:miter;stroke-dasharray:none;stroke-opacity:1;paint-order:normal"
       id="path4-49-1-0"
       cx="31.66979"
       cy="136.48744"
       rx="3.7484169"
       ry="3.8667881" /><path
       style="font-size:5.23131px;-inkscape-font-specification:sans-serif;stroke-width:0.182742;stroke-linecap:square"
       d="m 31.276024,137.96036 h -2.151353 v -0.43125 q 0.224099,-0.18571 0.448199,-0.37141 0.226233,-0.18571 0.420453,-0.36935 0.409781,-0.3838 0.561315,-0.60871 0.151534,-0.22697 0.151534,-0.48902 0,-0.23936 -0.16434,-0.37348 -0.162205,-0.13619 -0.454601,-0.13619 -0.19422,0 -0.420453,0.066 -0.226234,0.066 -0.441797,0.20222 h -0.02134 v -0.43332 q 0.151534,-0.0722 0.403379,-0.13205 0.25398,-0.0599 0.490885,-0.0599 0.488749,0 0.766206,0.22903 0.277456,0.22698 0.277456,0.61696 0,0.17539 -0.04696,0.32809 -0.04482,0.15062 -0.134459,0.28681 -0.08324,0.12793 -0.196354,0.25173 -0.110982,0.12381 -0.271053,0.27444 -0.228368,0.21666 -0.471676,0.42093 -0.243308,0.20221 -0.454602,0.37554 h 1.709558 z m 2.778832,0 h -2.151354 v -0.43125 q 0.224099,-0.18571 0.448199,-0.37141 0.226233,-0.18571 0.420453,-0.36935 0.409781,-0.3838 0.561315,-0.60871 0.151534,-0.22697 0.151534,-0.48902 0,-0.23936 -0.164339,-0.37348 -0.162206,-0.13619 -0.454602,-0.13619 -0.194219,0 -0.420453,0.066 -0.226234,0.066 -0.441795,0.20222 h -0.02134 v -0.43332 q 0.151534,-0.0722 0.403379,-0.13205 0.253979,-0.0599 0.490884,-0.0599 0.48875,0 0.766206,0.22903 0.277457,0.22698 0.277457,0.61696 0,0.17539 -0.04696,0.32809 -0.04482,0.15062 -0.134459,0.28681 -0.08324,0.12793 -0.196354,0.25173 -0.110983,0.12381 -0.271054,0.27444 -0.228367,0.21666 -0.471675,0.42093 -0.243308,0.20221 -0.454602,0.37554 h 1.709558 z"
       id="text4-63-64-8"
       aria-label="22" /><path
       id="path4-7-3-819"
       style="fill:#ffffff;stroke:none;stroke-width:0.0439026;stroke-linecap:square;stroke-opacity:1"
       d="m 113.78809,42.7353 a 0.66769647,0.68878164 0 0 1 -0.6677,0.688781 0.66769647,0.68878164 0 0 1 -0.6677,-0.688781 0.66769647,0.68878164 0 0 1 0.6677,-0.688782 0.66769647,0.68878164 0 0 1 0.6677,0.688782 z" /><path
       id="path4-7-3-25"
       style="fill:#ffffff;stroke:none;stroke-width:0.0439026;stroke-linecap:square;stroke-opacity:1"
       d="m 111.23936,60.25962 a 0.66769647,0.68878164 0 0 1 -0.6677,0.688781 0.66769647,0.68878164 0 0 1 -0.66769,-0.688781 0.66769647,0.68878164 0 0 1 0.66769,-0.688782 0.66769647,0.68878164 0 0 1 0.6677,0.688782 z" /><path
       id="path4-7-3-22"
       style="fill:#ffffff;stroke:none;stroke-width:0.0439026;stroke-linecap:square;stroke-opacity:1"
       d="m 113.95619,66.706527 a 0.66769647,0.68878164 0 0 1 -0.6677,0.688781 0.66769647,0.68878164 0 0 1 -0.66769,-0.688781 0.66769647,0.68878164 0 0 1 0.66769,-0.688782 0.66769647,0.68878164 0 0 1 0.6677,0.688782 z" /><path
       id="path4-7-3-6"
       style="fill:#ffffff;stroke:none;stroke-width:0.0439026;stroke-linecap:square;stroke-opacity:1"
       d="m 95.153482,79.322302 a 0.66769647,0.68878164 0 0 1 -0.667696,0.688781 0.66769647,0.68878164 0 0 1 -0.667697,-0.688781 0.66769647,0.68878164 0 0 1 0.667697,-0.688782 0.66769647,0.68878164 0 0 1 0.667696,0.688782 z" /><path
       id="path4-7-3-54"
       style="fill:#ffffff;stroke:none;stroke-width:0.0439026;stroke-linecap:square;stroke-opacity:1"
       d="m 93.10876,98.459053 a 0.66769647,0.68878164 0 0 1 -0.667696,0.688781 0.66769647,0.68878164 0 0 1 -0.667697,-0.688781 0.66769647,0.68878164 0 0 1 0.667697,-0.688782 0.66769647,0.68878164 0 0 1 0.667696,0.688782 z" /><path
       id="path4-7-3-0"
       style="fill:#ffffff;stroke:none;stroke-width:0.0439026;stroke-linecap:square;stroke-opacity:1"
       d="m 59.568121,107.43518 a 0.66769647,0.68878164 0 0 1 -0.667696,0.68879 0.66769647,0.68878164 0 0 1 -0.667697,-0.68879 0.66769647,0.68878164 0 0 1 0.667697,-0.68878 0.66769647,0.68878164 0 0 1 0.667696,0.68878 z" /><path
       id="path4-7-3-96"
       style="fill:#ffffff;stroke:none;stroke-width:0.0439026;stroke-linecap:square;stroke-opacity:1"
       d="m 62.162024,122.04052 a 0.66769647,0.68878164 0 0 1 -0.667696,0.68878 0.66769647,0.68878164 0 0 1 -0.667697,-0.68878 0.66769647,0.68878164 0 0 1 0.667697,-0.68879 0.66769647,0.68878164 0 0 1 0.667696,0.68879 z" /><path
       id="path4-7-3-69"
       style="fill:#ffffff;stroke:none;stroke-width:0.0439026;stroke-linecap:square;stroke-opacity:1"
       d="m 32.774002,128.29229 a 0.66769647,0.68878164 0 0 1 -0.667696,0.68879 0.66769647,0.68878164 0 0 1 -0.667697,-0.68879 0.66769647,0.68878164 0 0 1 0.667697,-0.68878 0.66769647,0.68878164 0 0 1 0.667696,0.68878 z" /></g></svg>
