<?xml version="1.0" encoding="UTF-8" standalone="no"?>
<!-- Created with Inkscape (http://www.inkscape.org/) -->

<svg
   xmlns:dc="http://purl.org/dc/elements/1.1/"
   xmlns:cc="http://creativecommons.org/ns#"
   xmlns:rdf="http://www.w3.org/1999/02/22-rdf-syntax-ns#"
   xmlns:svg="http://www.w3.org/2000/svg"
   xmlns="http://www.w3.org/2000/svg"
   xmlns:sodipodi="http://sodipodi.sourceforge.net/DTD/sodipodi-0.dtd"
   xmlns:inkscape="http://www.inkscape.org/namespaces/inkscape"
   width="211.53493mm"
   height="98.070091mm"
   viewBox="0 0 749.53321 347.49245"
   id="svg4250"
   version="1.1"
   inkscape:version="0.91 r13725"
   sodipodi:docname="WRC.svg">
  <defs
     id="defs4252" />
  <sodipodi:namedview
     id="base"
     pagecolor="#ffffff"
     bordercolor="#666666"
     borderopacity="1.0"
     inkscape:pageopacity="0.0"
     inkscape:pageshadow="2"
     inkscape:zoom="1"
     inkscape:cx="336.87479"
     inkscape:cy="161.53013"
     inkscape:document-units="px"
     inkscape:current-layer="layer1"
     showgrid="false"
     fit-margin-top="0"
     fit-margin-left="0"
     fit-margin-right="0"
     fit-margin-bottom="0"
     inkscape:window-width="1366"
     inkscape:window-height="706"
     inkscape:window-x="0"
     inkscape:window-y="38"
     inkscape:window-maximized="1" />
  <metadata
     id="metadata4255">
    <rdf:RDF>
      <cc:Work
         rdf:about="">
        <dc:format>image/svg+xml</dc:format>
        <dc:type
           rdf:resource="http://purl.org/dc/dcmitype/StillImage" />
        <dc:title></dc:title>
      </cc:Work>
    </rdf:RDF>
  </metadata>
  <g
     inkscape:label="Layer 1"
     inkscape:groupmode="layer"
     id="layer1"
     transform="translate(-17.791075,-143.81009)">
    <path
       style="fill:#000000;fill-rule:evenodd"
       d="m 163.74406,249.9743 0,19.80007 c 0,24.79692 -20.2875,45.08441 -45.08423,45.08441 l -28.474423,0 c -24.796732,0 -45.084208,-20.28749 -45.084208,-45.08441 l 0,-1.00906 c -0.07489,-0.61113 -0.114275,-1.23372 -0.114275,-1.86427 l 0,-76.97987 c 0,-8.45191 6.915278,-15.3672 15.367183,-15.3672 l 0,0 c 8.452091,0 15.367202,6.91529 15.367202,15.3672 l 0,76.97987 c 0,0.75832 -0.05603,1.50425 -0.164016,2.23446 l 0,1.42992 c 0,7.39533 6.050839,13.44561 13.446164,13.44561 l 30.838323,0 c 7.39533,0 13.44616,-6.05028 13.44616,-13.44561 l 0,-23.88124 0.0634,0 0,-5.44488 c 0,-25.20668 20.62293,-45.82961 45.8296,-45.82961 l 0,0 c 25.20668,0 45.82961,20.62293 45.82961,45.82961 l 0,5.44488 0.0368,0 0,23.88124 c 0,7.39533 6.05084,13.44561 13.44617,13.44561 l 30.83832,0 c 7.39533,0 13.44616,-6.05028 13.44616,-13.44561 l 0,-55.18424 -0.0166,0 c 0.48965,-22.96926 19.22093,-41.60772 42.30151,-41.60772 l 137.46497,0 c 23.38567,0 42.51951,19.13384 42.51951,42.5197 l 0,0 c 0,23.38567 -19.13384,42.51951 -42.51951,42.51951 l -42.07684,0 0,-0.0875 -46.85532,0 c -6.57709,0 -11.95874,5.38146 -11.95874,11.95855 l 0,0 c 0,6.5771 5.38165,11.95874 11.95874,11.95874 l 38.77858,0 c 0.15828,-0.006 0.31712,-0.009 0.47652,-0.009 l 76.9797,0 c 8.45209,0 15.36739,6.98334 15.36739,15.51883 l 0,0 c 0,8.5353 -6.9153,15.51864 -15.36739,15.51864 l -76.9797,0 c -1.28791,0 -2.54012,-0.16254 -3.73779,-0.46801 l -35.379,0 c -23.38567,0 -42.51951,-19.13384 -42.51951,-42.5197 l 0,0 c 0,-23.38567 19.13384,-42.51951 42.51951,-42.51951 l 53.52432,0 0,0.0875 35.40784,0 c 6.5771,0 11.95856,-5.38146 11.95856,-11.95855 l 0,0 c 0,-6.5771 -5.38146,-11.95874 -11.95856,-11.95874 l -137.29874,0 c -6.27051,0 -11.65974,4.89144 -12.12996,11.04676 l -0.004,0 0,54.39319 c 0,24.79692 -20.2875,45.08441 -45.08441,45.08441 l -28.47424,0 c -24.79673,0 -45.08423,-20.28749 -45.08423,-45.08441 l 0,-19.80007 -0.0148,0 0,-8.85556 c 0,-8.46726 -6.92787,-15.39494 -15.39513,-15.39494 l 0,0 c -8.46725,0 -15.39493,6.92768 -15.39493,15.39494 l 0,8.85556 -0.042,0 z"
       id="path4895" />
    <path
       style="fill:#000000;fill-rule:evenodd"
       d="m 703.58468,313.67147 -55.80332,0 -85.00204,0 c -24.79674,0 -45.08423,-20.28749 -45.08423,-45.08423 l 0,-49.82959 c 0,-24.79673 20.28749,-45.08423 45.08423,-45.08423 l 85.00204,0 55.80332,0 21.17655,0 c 8.45191,0 15.3672,6.91511 15.3672,15.36721 l 0,0 c 0,8.45209 -6.91529,15.3672 -15.3672,15.3672 l -76.97987,0 c -0.99223,0 -1.96301,-0.0963 -2.9044,-0.27829 l -82.88851,0 c -7.39532,0 -13.44561,6.05083 -13.44561,13.44616 l 0,52.19349 c 0,7.39533 6.05029,13.44617 13.44561,13.44617 l 82.88851,0 c 0.94139,-0.18196 1.91217,-0.27829 2.9044,-0.27829 l 76.97987,0 c 8.45191,0 15.3672,6.91511 15.3672,15.3672 l 0,0 c 0,8.45209 -6.91529,15.3672 -15.3672,15.3672 l -21.17655,0 z"
       id="path4893" />
    <path
       style="fill:#000000;fill-rule:evenodd"
       d="m 57.985954,348.97021 669.180596,0 c 6.79769,0 12.35963,5.5477 12.35963,12.3282 l 0,48.43222 c 0,6.7805 -5.56194,12.32801 -12.35963,12.32801 l -669.180596,0 c -6.797693,0 -12.359608,-5.54751 -12.359608,-12.32801 l 0,-48.43222 c 0,-6.7805 5.561915,-12.3282 12.359608,-12.3282 z"
       id="path4887" />
    <path
       style="fill:#ffffff;fill-rule:evenodd"
       d="M 116.5332 227.97852 L 116.5332 227.98828 L 116.46094 227.99023 C 106.42487 228.32622 106.30712 232.48885 106.35742 241.17578 C 106.31417 241.3523 106.29117 241.53894 106.29102 241.72852 L 106.29102 253.48828 C 106.29102 254.76472 107.32531 255.80078 108.60156 255.80078 C 109.87782 255.80078 110.91406 254.76472 110.91406 253.48828 L 110.91406 243.86133 L 142.97656 243.86133 L 142.97656 253.48828 C 142.97656 254.76472 144.01085 255.80078 145.28711 255.80078 C 146.56336 255.80078 147.59961 254.76472 147.59961 253.48828 L 147.59961 243.13477 C 147.73587 242.84243 147.81157 242.51702 147.8125 242.17383 L 147.81641 241.55273 C 147.86984 232.67405 147.89329 228.39376 137.9375 227.99805 C 137.84098 227.98555 137.74208 227.97852 137.64258 227.97852 L 116.5332 227.97852 z M 116.5332 232.59766 L 116.5332 232.60352 L 137.64258 232.60352 L 137.74219 232.60156 C 141.91027 232.78388 142.92316 234.44351 143.1543 237.76562 C 143.04005 238.03911 142.97656 238.33744 142.97656 238.65234 L 142.97656 239.24023 L 110.96484 239.24023 C 111.03363 234.90111 111.69889 232.78016 116.5332 232.59766 z "
       transform="translate(17.791075,143.81009)"
       id="path4885" />
    <path
       style="fill:#ffffff;fill-rule:evenodd"
       d="m 67.927686,385.53763 c 0,-0.19027 0.02256,-0.37537 0.06601,-0.55251 -0.0503,-8.68693 0.06823,-12.84964 10.104269,-13.18563 l 0.0723,-10e-4 0,-0.009 21.109424,0 c 1.276261,0 2.311391,1.03513 2.311391,2.31138 0,1.27644 -1.03513,2.31158 -2.311391,2.31158 l -5.53882,0 -15.570604,0 0,-0.006 c -4.834309,0.18251 -5.499434,2.30362 -5.56822,6.64274 l 5.236305,0 11.399939,0 c 1.27644,0 2.311571,1.03513 2.311571,2.31138 0,1.27644 -1.035131,2.31157 -2.311571,2.31157 l -16.687465,0 0,9.6272 c 0,1.27644 -1.035316,2.31157 -2.311571,2.31157 -1.276439,0 -2.31157,-1.03513 -2.31157,-2.31157 l 0,-11.76199 z"
       id="path4881" />
    <path
       style="fill:#ffffff;fill-rule:evenodd"
       d="M 244.02539 227.94727 C 241.90927 227.94727 239.98734 228.81149 238.5957 230.20312 C 237.20406 231.59458 236.33984 233.51474 236.33984 235.63086 L 236.33984 247.64258 C 236.33984 249.75852 237.20406 251.67867 238.5957 253.07031 C 239.98734 254.46195 241.90927 255.32617 244.02539 255.32617 L 269.94141 255.32617 C 272.05735 255.32617 273.97945 254.46195 275.37109 253.07031 C 276.76273 251.67867 277.62695 249.75852 277.62695 247.64258 L 277.62695 235.63086 C 277.62695 233.51474 276.76273 231.59458 275.37109 230.20312 C 273.97945 228.81148 272.05735 227.94727 269.94141 227.94727 L 244.02539 227.94727 z M 244.02539 232.57031 L 269.94141 232.57031 C 270.78109 232.57031 271.54786 232.91523 272.10352 233.4707 C 272.65918 234.02636 273.00391 234.79117 273.00391 235.63086 L 273.00391 247.64258 C 273.00391 248.48226 272.65918 249.24726 272.10352 249.80273 C 271.54786 250.35839 270.78109 250.70312 269.94141 250.70312 L 244.02539 250.70312 C 243.18571 250.70312 242.41894 250.35839 241.86328 249.80273 C 241.30762 249.24726 240.96289 248.48226 240.96289 247.64258 L 240.96289 235.63086 C 240.96289 234.79117 241.30762 234.02636 241.86328 233.4707 C 242.41894 232.91523 243.18571 232.57031 244.02539 232.57031 z "
       transform="translate(17.791075,143.81009)"
       id="path4879" />
    <path
       style="fill:#ffffff;fill-rule:evenodd"
       d="m 408.64907,386.66189 c 0,1.27625 -1.03532,2.31157 -2.31157,2.31157 -1.27644,0 -2.31157,-1.03532 -2.31157,-2.31157 l 0,-7.22021 c 0,-2.11612 0.86371,-4.03772 2.25535,-5.42917 1.39164,-1.39164 3.31379,-2.25555 5.42936,-2.25555 l 25.91749,0 c 2.11538,0 4.03753,0.86391 5.42917,2.25555 1.39164,1.39145 2.25536,3.31305 2.25536,5.42917 l 0,12.01051 c 0,2.11538 -0.86372,4.03753 -2.25536,5.42917 -1.39164,1.39164 -3.31379,2.25554 -5.42917,2.25554 l -31.48461,0 c -1.27625,0 -2.31157,-1.03532 -2.31157,-2.31157 0,-1.27644 1.03532,-2.31157 2.31157,-2.31157 l 31.48461,0 c 0.83857,0 1.60484,-0.34541 2.1605,-0.90107 0.55566,-0.55547 0.90107,-1.32193 0.90107,-2.1605 l 0,-12.01051 c 0,-0.83969 -0.34541,-1.60503 -0.90107,-2.16069 -0.55566,-0.55547 -1.32193,-0.90088 -2.1605,-0.90088 l -25.91749,0 c -0.83876,0 -1.60503,0.34541 -2.16069,0.90088 -0.55547,0.55566 -0.90088,1.321 -0.90088,2.16069 l 0,7.22021 z"
       id="path4875" />
    <path
       style="fill:#ffffff;fill-rule:evenodd"
       d="m 354.8045,372.70944 c 0,-1.27644 1.03513,-2.31157 2.31157,-2.31157 1.27626,0 2.31139,1.03513 2.31139,2.31157 l 0,18.74275 c 0,0.83857 0.34597,1.60447 0.90163,2.15994 l 0.0912,0.0971 c 0.54142,0.49889 1.26904,0.80455 2.06896,0.80455 l 31.48441,0 c 1.27644,0 2.31157,1.03513 2.31157,2.31157 0,1.27625 -1.03513,2.31157 -2.31157,2.31157 l -31.48441,0 c -2.03013,0 -3.8883,-0.80418 -5.27051,-2.11131 -0.0546,-0.0457 -0.10743,-0.0939 -0.15828,-0.14479 -1.39109,-1.39108 -2.25592,-3.3136 -2.25592,-5.42861 l 0,-18.74275 z"
       id="path4873" />
    <path
       style="fill:#ffffff;fill-rule:evenodd"
       d="m 211.88098,387.30871 c 0,-0.12223 0.009,-0.24113 0.0279,-0.35799 l 0,-2.24019 c 0,-2.2084 0.9057,-4.22318 2.36705,-5.68712 l 0.004,-0.006 0.006,-0.004 0.0148,-0.0148 c 1.46301,-1.45285 3.47096,-2.35244 5.67195,-2.35244 2.21986,0 4.23612,0.90681 5.69655,2.36723 1.46024,1.46024 2.36704,3.4767 2.36704,5.69655 l 0,2.47392 -0.004,0.11909 0,0.006 0,3.97096 c 0,0.83876 0.34596,1.60447 0.90162,2.16013 0.55547,0.55566 1.32137,0.90144 2.15994,0.90144 l 6.17714,0 c 0.83875,0 1.60447,-0.34578 2.16013,-0.90144 0.55565,-0.55566 0.90162,-1.32137 0.90162,-2.16013 l 0,-17.45595 c 0,-1.27626 1.03513,-2.31157 2.31139,-2.31157 1.27644,0 2.31157,1.03531 2.31157,2.31157 l 0,17.45595 c 0,2.11557 -0.86483,4.03772 -2.25592,5.4288 -1.39108,1.39109 -3.31378,2.25591 -5.42879,2.25591 l -6.17714,0 c -2.11538,0 -4.03752,-0.86482 -5.42861,-2.25591 -1.39108,-1.39108 -2.2561,-3.31323 -2.2561,-5.4288 l 0,-3.97096 0.004,-0.11908 0,-0.006 0,-2.47392 c 0,-0.94305 -0.38831,-1.80362 -1.01257,-2.42788 -0.62426,-0.62444 -1.48502,-1.01276 -2.42788,-1.01276 -0.94989,0 -1.80935,0.38425 -2.42788,1.00333 l -0.009,0.009 c -0.61909,0.61834 -1.00333,1.47799 -1.00333,2.42788 l 0,2.47392 c 0,0.12222 -0.009,0.24112 -0.0277,0.35799 l 0,3.73723 c 0,2.10724 -0.86538,4.02773 -2.26072,5.42399 l 0.006,0.006 c -1.39108,1.39108 -3.31379,2.25591 -5.4288,2.25591 l -6.17713,0 c -2.11501,0 -4.03753,-0.86483 -5.42861,-2.25591 -1.39127,-1.39109 -2.2561,-3.31324 -2.2561,-5.4288 l 0,-17.45596 c 0,-1.27625 1.03532,-2.31157 2.31157,-2.31157 1.27625,0 2.31157,1.03532 2.31157,2.31157 l 0,17.45596 c 0,0.83875 0.34597,1.60447 0.90144,2.16013 0.55566,0.55565 1.32156,0.90144 2.16013,0.90144 l 6.17713,0 c 0.83876,0 1.60447,-0.34579 2.16013,-0.90144 l 0.004,0.004 0.006,-0.004 c 0.55029,-0.54993 0.89201,-1.31509 0.89201,-2.16013 l 0,-3.97096 z"
       id="path4871" />
    <path
       style="fill:#ffffff;fill-rule:evenodd"
       d="M 517.61523 227.97852 L 517.61523 227.98828 L 517.54297 227.99023 C 507.5069 228.32622 507.38915 232.48885 507.43945 241.17578 C 507.3962 241.3523 507.3732 241.53894 507.37305 241.72852 L 507.37305 253.48828 C 507.37305 254.76472 508.40715 255.80078 509.68359 255.80078 C 510.95985 255.80078 511.99609 254.76472 511.99609 253.48828 L 511.99609 243.86133 L 544.05859 243.86133 L 544.05859 253.48828 C 544.05859 254.76472 545.0927 255.80078 546.36914 255.80078 C 547.64539 255.80078 548.68164 254.76472 548.68164 253.48828 L 548.68164 243.13477 C 548.8179 242.84243 548.89353 242.51702 548.89453 242.17383 L 548.89844 241.55273 C 548.95187 232.67405 548.97532 228.39376 539.01953 227.99805 C 538.92301 227.98555 538.82431 227.97852 538.72461 227.97852 L 517.61523 227.97852 z M 517.61523 232.59766 L 517.61523 232.60352 L 538.72461 232.60352 L 538.82422 232.60156 C 542.99229 232.78388 544.00324 234.44351 544.23438 237.76562 C 544.12014 238.03911 544.05859 238.33744 544.05859 238.65234 L 544.05859 239.24023 L 512.04688 239.24023 C 512.11566 234.90111 512.78092 232.78016 517.61523 232.59766 z "
       transform="translate(17.791075,143.81009)"
       id="path4869" />
    <path
       style="fill:#ffffff;fill-rule:evenodd"
       d="m 576.83883,372.70944 c 0,-1.27644 1.03531,-2.31157 2.31157,-2.31157 1.27625,0 2.31157,1.03513 2.31157,2.31157 l 0,18.74275 c 0,0.84486 0.34171,1.6102 0.89201,2.15994 l 0.009,0.009 c 0.54993,0.55048 1.31509,0.89219 2.16013,0.89219 l 31.48459,0 c 1.27626,0 2.31139,1.03514 2.31139,2.31158 0,1.27625 -1.03513,2.31157 -2.31139,2.31157 l -31.48459,0 c -2.09504,0 -4.00775,-0.85707 -5.40254,-2.23927 l -0.0166,-0.0166 -0.006,-0.004 -0.006,-0.006 c -1.39257,-1.39571 -2.25592,-3.31638 -2.25592,-5.41918 l 0,-18.74275 z"
       id="path4865" />
    <path
       style="fill:#ffffff;fill-rule:evenodd"
       d="m 625.32911,372.70944 c 0,-1.27644 1.03532,-2.31157 2.31157,-2.31157 1.27626,0 2.31157,1.03513 2.31157,2.31157 l 0,18.74275 c 0,0.83857 0.34597,1.60447 0.90144,2.15994 l 0.0912,0.0971 c 0.5416,0.49889 1.26904,0.80455 2.06896,0.80455 l 31.48441,0 c 1.27644,0 2.31157,1.03513 2.31157,2.31157 0,1.27625 -1.03513,2.31157 -2.31157,2.31157 l -31.48441,0 c -2.03013,0 -3.8883,-0.80418 -5.27051,-2.11131 -0.0544,-0.0457 -0.10743,-0.0939 -0.15829,-0.14479 -1.39108,-1.39108 -2.25591,-3.3136 -2.25591,-5.42861 l 0,-18.74275 z"
       id="path4863" />
    <path
       style="fill:#ffffff;fill-rule:evenodd"
       d="m 712.33189,372.70944 c 0,-1.27644 1.03513,-2.31157 2.31139,-2.31157 1.27644,0 2.31157,1.03513 2.31157,2.31157 l 0,18.74275 c 0,2.11501 -0.86483,4.03753 -2.25591,5.42861 -0.0509,0.0508 -0.10374,0.0991 -0.15829,0.14479 -1.38221,1.30713 -3.23982,2.11131 -5.27051,2.11131 l -31.4844,0 c -1.27644,0 -2.31158,-1.03532 -2.31158,-2.31157 0,-1.27644 1.03514,-2.31157 2.31158,-2.31157 l 31.4844,0 c 0.79937,0 1.52699,-0.30566 2.06897,-0.80455 l 0.0912,-0.0971 c 0.55565,-0.55547 0.90162,-1.32137 0.90162,-2.15994 l 0,-3.3541 -29.43929,0 c -2.11501,0 -4.03771,-0.86483 -5.42879,-2.25591 -1.39109,-1.39127 -2.25592,-3.31379 -2.25592,-5.4288 l 0,-7.70394 c 0,-1.27644 1.03513,-2.31157 2.31157,-2.31157 1.27626,0 2.31157,1.03513 2.31157,2.31157 l 0,7.70394 c 0,0.83876 0.34579,1.60447 0.90144,2.16013 0.55566,0.55547 1.32138,0.90144 2.16013,0.90144 l 29.43929,0 0,-10.76551 z"
       id="path4861" />
    <path
       style="fill:#ffffff;fill-rule:evenodd"
       d="m 309.93718,396.57108 c 0,1.27625 -1.03513,2.31157 -2.31157,2.31157 -1.27626,0 -2.31157,-1.03532 -2.31157,-2.31157 l 0,-17.1294 c 0,-2.11612 0.8639,-4.03772 2.25554,-5.42917 1.39164,-1.39164 3.31323,-2.25555 5.42917,-2.25555 l 25.91747,0 c 2.12222,0 4.05325,0.87371 5.45025,2.29993 1.37851,1.40698 2.23446,3.34411 2.23446,5.49592 0,2.15162 -0.85595,4.08893 -2.23446,5.49573 -1.397,1.42622 -3.32803,2.29992 -5.45025,2.29992 l 0,-0.009 -8.50331,0.0205 -8.50349,0.0203 0,0.009 c -0.84486,0 -1.61169,0.3456 -2.16365,0.90902 -0.55362,0.56509 -0.89792,1.36224 -0.89792,2.26386 0,0.90144 0.34375,1.69823 0.89792,2.26368 0.55196,0.56306 1.31879,0.90902 2.16365,0.90902 l 22.33334,0 c 1.27626,0 2.31139,1.03514 2.31139,2.31158 0,1.27625 -1.03513,2.31138 -2.31139,2.31138 l -22.33334,0 c -2.12075,0 -4.05325,-0.87426 -5.45025,-2.29992 -1.37851,-1.40736 -2.23446,-3.34411 -2.23446,-5.49574 0,-2.1518 0.85595,-4.08893 2.23446,-5.49592 1.397,-1.42621 3.32802,-2.29992 5.45025,-2.29992 l 0,0.009 8.50349,-0.0205 8.50331,-0.0203 0,-0.009 c 0.84486,0 1.61187,-0.34542 2.16364,-0.90884 0.55363,-0.56509 0.89793,-1.36242 0.89793,-2.26386 0,-0.90163 -0.3443,-1.69878 -0.89793,-2.26387 -0.55177,-0.56342 -1.31878,-0.90883 -2.16364,-0.90883 l -25.91747,0 c -0.83968,0 -1.60503,0.34541 -2.1605,0.90088 -0.55566,0.55566 -0.90107,1.321 -0.90107,2.16069 l 0,17.1294 z"
       id="path4859" />
    <path
       style="fill:#ffffff;fill-rule:evenodd"
       d="m 479.40449,396.57108 c 0,1.27625 -1.03532,2.31157 -2.31157,2.31157 -1.27644,0 -2.31157,-1.03532 -2.31157,-2.31157 l 0,-17.1294 c 0,-2.11612 0.86371,-4.03772 2.25535,-5.42917 1.39164,-1.39164 3.31324,-2.25555 5.42936,-2.25555 l 25.91747,0 c 2.12222,0 4.05325,0.87371 5.45007,2.29993 1.37851,1.40698 2.23446,3.34411 2.23446,5.49592 0,2.15162 -0.85595,4.08893 -2.23446,5.49573 -1.39682,1.42622 -3.32785,2.29992 -5.45007,2.29992 l 0,-0.009 -8.50349,0.0205 -8.50331,0.0203 0,0.009 c -0.84505,0 -1.61187,0.3456 -2.16383,0.90902 -0.55344,0.56509 -0.89774,1.36224 -0.89774,2.26386 0,0.90144 0.34375,1.69823 0.89774,2.26368 0.55196,0.56306 1.31878,0.90902 2.16383,0.90902 l 22.33316,0 c 1.27644,0 2.31157,1.03514 2.31157,2.31158 0,1.27625 -1.03513,2.31138 -2.31157,2.31138 l -22.33316,0 c -2.12075,0 -4.05344,-0.87426 -5.45025,-2.29992 -1.37851,-1.40736 -2.23446,-3.34411 -2.23446,-5.49574 0,-2.1518 0.85595,-4.08893 2.23446,-5.49592 1.39681,-1.42621 3.32784,-2.29992 5.45025,-2.29992 l 0,0.009 8.50331,-0.0205 8.50349,-0.0203 0,-0.009 c 0.84486,0 1.61169,-0.34542 2.16364,-0.90884 0.55344,-0.56509 0.89793,-1.36242 0.89793,-2.26386 0,-0.90163 -0.34449,-1.69878 -0.89793,-2.26387 -0.55195,-0.56342 -1.31878,-0.90883 -2.16364,-0.90883 l -25.91747,0 c -0.83968,0 -1.60503,0.34541 -2.16069,0.90088 -0.55547,0.55566 -0.90088,1.321 -0.90088,2.16069 l 0,17.1294 z"
       id="path4857" />
    <path
       style="fill:#000000;fill-rule:evenodd"
       d="m 128.69735,441.61499 c 0,-1.00628 0.81619,-1.82248 1.82248,-1.82248 1.00647,0 1.82248,0.8162 1.82248,1.82248 l 0,7.17787 24.44041,0 0,-7.17787 c 0,-1.00628 0.81619,-1.82248 1.82248,-1.82248 1.00647,0 1.82248,0.8162 1.82248,1.82248 l 0,18.00052 c 0,1.00647 -0.81601,1.82267 -1.82248,1.82267 -1.00629,0 -1.82248,-0.8162 -1.82248,-1.82267 l 0,-7.17768 -24.44041,0 0,7.17768 c 0,1.00647 -0.81601,1.82267 -1.82248,1.82267 -1.00629,0 -1.82248,-0.8162 -1.82248,-1.82267 l 0,-18.00052 z"
       id="path4855" />
    <path
       style="fill:#000000;fill-rule:evenodd"
       d="M 179.53906 295.69141 L 179.53906 295.69727 L 179.48242 295.69922 C 171.56912 295.96457 171.47573 299.2466 171.51562 306.0957 C 171.48163 306.23568 171.46289 306.38092 171.46289 306.53125 L 171.46484 306.53125 L 171.46484 315.80664 C 171.46484 316.81311 172.28083 317.62891 173.28711 317.62891 C 174.29358 317.62891 175.10938 316.81311 175.10938 315.80664 L 175.10938 308.21484 L 200.39062 308.21484 L 200.39062 315.80664 C 200.39063 316.81311 201.2066 317.62891 202.21289 317.62891 C 203.21936 317.62891 204.03516 316.81311 204.03516 315.80664 L 204.03516 307.64258 C 204.14203 307.41237 204.20212 307.15529 204.20312 306.88477 L 204.20508 306.39648 C 204.24817 299.39279 204.26684 296.01787 196.41016 295.70703 C 196.33638 295.69623 196.26009 295.69141 196.18359 295.69141 L 179.53906 295.69141 z M 179.53906 299.33008 L 179.53906 299.33594 L 196.18359 299.33594 L 196.26172 299.33398 C 199.54925 299.47747 200.34734 300.78728 200.5293 303.4082 C 200.43907 303.62362 200.39062 303.85945 200.39062 304.10742 L 200.39062 304.57031 L 175.15039 304.57031 L 175.15039 304.56836 C 175.2042 301.14621 175.72638 299.47357 179.53906 299.33008 z "
       transform="translate(17.791075,143.81009)"
       id="path4853" />
    <path
       style="fill:#000000;fill-rule:evenodd"
       d="m 99.130285,457.41877 c 1.006285,0 1.822485,0.8162 1.822485,1.82267 0,1.00628 -0.8162,1.82248 -1.822485,1.82248 l -24.321511,0 c -1.667896,0 -3.18361,-0.6814 -4.280686,-1.77847 -1.097077,-1.09708 -1.778473,-2.61243 -1.778473,-4.28032 l 0,-9.4704 c 0,-1.6616 0.682321,-3.17602 1.782171,-4.27661 l -0.0037,-0.004 c 1.097076,-1.09708 2.61279,-1.77848 4.280686,-1.77848 l 24.321511,0 c 1.006287,0 1.822487,0.81602 1.822487,1.82249 0,1.00628 -0.8162,1.82248 -1.822487,1.82248 l -24.321511,0 c -0.661981,0 -1.266269,0.27256 -1.703953,0.71024 l -0.0037,-0.004 -0.0037,0.004 c -0.433431,0.43343 -0.703401,1.0368 -0.703401,1.70358 l 0,9.4704 c 0,0.66198 0.272558,1.2659 0.710242,1.70358 0.437684,0.4375 1.041973,0.71006 1.703954,0.71006 l 24.32151,0 z"
       id="path4849" />
    <path
       style="fill:#000000;fill-rule:evenodd"
       d="m 275.89842,448.4726 c 0,0.0963 -0.007,0.19083 -0.022,0.28347 l 0,1.76534 c 0,1.74963 -0.71542,3.3406 -1.86649,4.49149 -0.0383,0.0383 -0.0777,0.0745 -0.11853,0.10854 -1.14478,1.0882 -2.68675,1.75813 -4.37295,1.75813 -1.74963,0 -3.34042,-0.7156 -4.49149,-1.86667 -0.0374,-0.0372 -0.0729,-0.076 -0.10651,-0.11576 -1.08857,-1.14164 -1.76016,-2.68527 -1.76016,-4.37573 l 0,-1.95081 0.004,-0.0939 0,-0.004 0,-3.13091 c 0,-0.66605 -0.26941,-1.26942 -0.70395,-1.7034 l -0.007,-0.007 c -0.43398,-0.43454 -1.0379,-0.70395 -1.70358,-0.70395 l -4.87037,0 c -0.66161,0 -1.2659,0.27311 -1.70358,0.71079 -0.43769,0.43769 -0.7108,1.04142 -0.7108,1.7034 l 0,13.76384 c 0,1.00647 -0.81601,1.82248 -1.82248,1.82248 -1.00629,0 -1.82248,-0.81601 -1.82248,-1.82248 l 0,-13.76384 c 0,-1.66771 0.68195,-3.18305 1.77903,-4.28013 1.09707,-1.09708 2.61297,-1.77903 4.28031,-1.77903 l 4.87037,0 c 1.65791,0 3.17011,0.67974 4.27033,1.77589 l 0.004,0.004 0.004,0.004 0.004,0.004 c 1.09856,1.10004 1.77903,2.6139 1.77903,4.27329 l 0,3.13091 -0.002,0.0937 0,0.004 0,1.95081 c 0,0.7108 0.27571,1.36076 0.72485,1.8456 l 0.0734,0.0691 c 0.49224,0.49223 1.17141,0.79845 1.91476,0.79845 0.71227,0 1.36168,-0.27534 1.84282,-0.72245 l 0.0719,-0.076 c 0.49205,-0.49205 0.79826,-1.1703 0.79826,-1.91475 l 0,-1.95081 c 0,-0.0965 0.007,-0.19083 0.022,-0.28365 l 0,-2.94526 c 0,-1.66734 0.6814,-3.18306 1.77847,-4.28013 1.09708,-1.09708 2.61298,-1.77903 4.28032,-1.77903 l 4.87092,0 c 1.66734,0 3.18324,0.68195 4.28032,1.77903 1.09708,1.09707 1.77847,2.61242 1.77847,4.28013 l 0,13.76384 c 0,1.00647 -0.81619,1.82248 -1.82248,1.82248 -1.00647,0 -1.82267,-0.81601 -1.82267,-1.82248 l 0,-13.76384 c 0,-0.66198 -0.27255,-1.26572 -0.71005,-1.7034 -0.43769,-0.43769 -1.04216,-0.7108 -1.70359,-0.7108 l -4.87092,0 c -0.66161,0 -1.2659,0.27311 -1.70358,0.7108 -0.43769,0.43768 -0.71025,1.04197 -0.71025,1.7034 l 0,3.13091 z"
       id="path4847" />
    <path
       style="fill:#000000;fill-rule:evenodd"
       d="m 320.84433,459.04118 c 0,1.00628 -0.81601,1.82248 -1.82248,1.82248 -1.00647,0 -1.82248,-0.8162 -1.82248,-1.82248 l 0,-13.50645 c 0,-1.6616 0.6825,-3.17602 1.78217,-4.27661 l -0.004,-0.004 c 1.09708,-1.09708 2.61297,-1.77848 4.28069,-1.77848 l 20.43542,0 c 1.67363,0 3.19581,0.68917 4.29751,1.81306 1.08709,1.10965 1.76165,2.63645 1.76165,4.3332 0,1.69674 -0.67511,3.2241 -1.76165,4.33375 -1.10133,1.12371 -2.62444,1.81305 -4.29751,1.81305 l 0,-0.007 -6.70505,0.0166 -10.19321,0.0166 c -1.00222,0 -1.81527,-0.81305 -1.81527,-1.81508 0,-1.00222 0.81305,-1.81527 1.81527,-1.81527 l 10.19321,-0.0166 6.70505,-0.0166 0,-0.007 c 0.66623,0 1.27108,-0.27256 1.70617,-0.71653 0.43658,-0.44564 0.70803,-1.07452 0.70803,-1.78532 0,-0.7108 -0.27145,-1.33931 -0.70803,-1.78476 -0.43565,-0.44397 -1.03994,-0.71653 -1.70617,-0.71653 l -20.43542,0 c -0.66199,0 -1.26627,0.27256 -1.70396,0.71025 l -0.004,-0.004 -0.004,0.004 c -0.43344,0.43343 -0.70341,1.03679 -0.70341,1.70358 l 0,13.50644 z"
       id="path4845" />
    <path
       style="fill:#000000;fill-rule:evenodd"
       d="m 687.28664,459.04118 c 0,1.00628 -0.8162,1.82248 -1.82267,1.82248 -1.00628,0 -1.82248,-0.8162 -1.82248,-1.82248 l 0,-13.50645 c 0,-1.6616 0.68251,-3.17602 1.78217,-4.27661 l -0.004,-0.004 c 1.09708,-1.09708 2.61298,-1.77848 4.28088,-1.77848 l 20.43524,0 c 1.67362,0 3.19581,0.68917 4.29769,1.81306 1.08709,1.10965 1.76165,2.63645 1.76165,4.3332 0,1.69674 -0.67511,3.2241 -1.76165,4.33375 -1.10133,1.12371 -2.62462,1.81305 -4.29769,1.81305 l 0,-0.007 -6.70506,0.0166 -9.56155,0.0166 c -1.00222,0 -1.81527,-0.81305 -1.81527,-1.81508 0,-1.00222 0.81305,-1.81527 1.81527,-1.81527 l 9.56155,-0.0166 6.70506,-0.0166 0,-0.007 c 0.66623,0 1.27107,-0.27256 1.70617,-0.71653 0.43657,-0.44564 0.70821,-1.07452 0.70821,-1.78532 0,-0.7108 -0.27164,-1.33931 -0.70821,-1.78476 -0.43565,-0.44397 -1.03994,-0.71653 -1.70617,-0.71653 l -20.43524,0 c -0.66198,0 -1.26646,0.27256 -1.70414,0.71025 l -0.004,-0.004 -0.004,0.004 c -0.43361,0.43343 -0.7034,1.03679 -0.7034,1.70358 l 0,13.50644 z"
       id="path4843" />
    <path
       style="fill:#000000;fill-rule:evenodd"
       d="m 377.60475,441.61499 c 0,-1.00628 0.8162,-1.82248 1.82248,-1.82248 1.00647,0 1.82249,0.8162 1.82249,1.82248 l 0,18.00052 c 0,1.00647 -0.81602,1.82267 -1.82249,1.82267 -1.00628,0 -1.82248,-0.8162 -1.82248,-1.82267 l 0,-18.00052 z"
       id="path4841" />
    <path
       style="fill:#000000;fill-rule:evenodd"
       d="m 379.42723,441.61499 0,18.00052 z"
       id="path4839" />
    <path
       style="fill:#000000;fill-rule:evenodd"
       d="M 397.75586 295.66602 C 396.08815 295.66602 394.57168 296.34628 393.47461 297.44336 L 393.47852 297.44727 C 392.37886 298.54786 391.69727 300.06301 391.69727 301.72461 L 391.69727 311.19531 C 391.69727 312.8632 392.37948 314.37753 393.47656 315.47461 C 394.57363 316.57168 396.08815 317.25391 397.75586 317.25391 L 408.03516 317.25391 L 418.3125 317.25391 C 419.98039 317.25391 421.49667 316.57168 422.59375 315.47461 C 423.69082 314.37753 424.37305 312.8632 424.37305 311.19531 L 424.37305 301.72461 C 424.37305 300.11959 423.73538 298.65078 422.70117 297.56055 C 422.66754 297.52023 422.63145 297.48106 422.59375 297.44336 C 421.49667 296.34628 419.98039 295.66602 418.3125 295.66602 L 408.03516 295.66602 L 397.75586 295.66602 z M 397.75586 299.31055 L 408.03516 299.31055 L 418.31445 299.31055 C 418.97643 299.31055 419.5799 299.5838 420.01758 300.02148 L 420.08984 300.08984 C 420.485 300.51772 420.72852 301.09185 420.72852 301.72461 L 420.72852 311.19531 C 420.72852 311.85729 420.45527 312.46076 420.01758 312.89844 C 419.5799 313.33594 418.97643 313.60938 418.31445 313.60938 L 408.03516 313.60938 L 397.75586 313.60938 C 397.09388 313.60937 396.48847 313.33594 396.05078 312.89844 C 395.6131 312.46076 395.3418 311.85729 395.3418 311.19531 L 395.3418 301.72461 C 395.3418 301.05783 395.61149 300.45491 396.04492 300.02148 L 396.04883 300.01758 L 396.05273 300.02148 C 396.49041 299.5838 397.09388 299.31055 397.75586 299.31055 z "
       transform="translate(17.791075,143.81009)"
       id="path4837" />
    <path
       style="fill:#000000;fill-rule:evenodd"
       d="m 591.49634,441.61499 c 0,-1.00628 0.8162,-1.82248 1.82248,-1.82248 1.00647,0 1.82248,0.8162 1.82248,1.82248 l 0,7.17787 24.44041,0 0,-7.17787 c 0,-1.00628 0.8162,-1.82248 1.82248,-1.82248 1.00647,0 1.82249,0.8162 1.82249,1.82248 l 0,18.00052 c 0,1.00647 -0.81602,1.82267 -1.82249,1.82267 -1.00628,0 -1.82248,-0.8162 -1.82248,-1.82267 l 0,-7.17768 -24.44041,0 0,7.17768 c 0,1.00647 -0.81601,1.82267 -1.82248,1.82267 -1.00628,0 -1.82248,-0.8162 -1.82248,-1.82267 l 0,-18.00052 z"
       id="path4833" />
    <path
       style="fill:#000000;fill-rule:evenodd"
       d="m 652.28135,441.61499 c 0,-1.00628 0.81601,-1.82248 1.82248,-1.82248 1.00629,0 1.82248,0.8162 1.82248,1.82248 l 0,18.00052 c 0,1.00647 -0.81619,1.82267 -1.82248,1.82267 -1.00647,0 -1.82248,-0.8162 -1.82248,-1.82267 l 0,-18.00052 z"
       id="path4831" />
    <path
       style="fill:#000000;fill-rule:evenodd"
       d="m 654.10383,441.61499 0,18.00052 z"
       id="path4829" />
    <path
       style="fill:#000000;fill-rule:evenodd"
       d="m 562.6656,439.47594 c 1.00646,0 1.82248,0.81602 1.82248,1.82249 0,1.00628 -0.81602,1.82248 -1.82248,1.82248 l -25.3964,0 c -0.66624,0 -1.27108,0.27311 -1.70617,0.71653 -0.43658,0.44545 -0.70803,1.07396 -0.70803,1.78476 0,0.71079 0.27145,1.33968 0.70803,1.78531 0.43509,0.44397 1.03993,0.71653 1.70617,0.71653 0.0597,0 0.11908,0.004 0.17714,0.007 l 20.98942,0.15884 0.0209,0 c 1.66993,0.0283 3.1875,0.71653 4.27866,1.83043 1.08191,1.10429 1.7524,2.61501 1.7524,4.30898 0,1.69674 -0.67511,3.2241 -1.76183,4.3332 -1.1017,1.12389 -2.62389,1.81305 -4.29752,1.81305 l -25.39639,0 c -1.00647,0 -1.82249,-0.81601 -1.82249,-1.82248 0,-1.00629 0.81602,-1.82248 1.82249,-1.82248 l 25.39639,0 c 0.66624,0 1.27053,-0.27256 1.70618,-0.71653 0.43657,-0.44545 0.70802,-1.07397 0.70802,-1.78476 0,-0.70396 -0.26775,-1.32027 -0.69859,-1.76054 -0.44601,-0.45562 -1.06565,-0.73761 -1.7439,-0.74852 l -20.98091,-0.15884 c -0.0497,0.004 -0.0997,0.006 -0.14996,0.006 -1.67308,0 -3.19637,-0.68935 -4.29752,-1.81305 -1.08653,-1.10965 -1.76164,-2.63702 -1.76164,-4.33376 0,-1.69674 0.67455,-3.22355 1.76164,-4.3332 1.1017,-1.12389 2.62444,-1.81305 4.29752,-1.81305 l 25.3964,0 z"
       id="path4827" />
    <path
       style="fill:#000000;fill-rule:evenodd"
       d="m 473.76914,459.10553 c 0,1.00647 -0.81601,1.82248 -1.82248,1.82248 -1.00628,0 -1.82248,-0.81601 -1.82248,-1.82248 l 0,-13.76384 c 0,-1.66734 0.68195,-3.18306 1.77903,-4.28013 0.0383,-0.0383 0.0775,-0.0745 0.11853,-0.10855 1.08801,-1.03309 2.55565,-1.67048 4.16178,-1.67048 l 6.74426,0 c 1.66734,0 3.18324,0.68195 4.28032,1.77903 1.09707,1.09707 1.77902,2.61279 1.77902,4.28013 0,0.0514 -0.002,0.10225 -0.006,0.15199 l 0.0292,4.60428 0.0305,4.76349 0,0.007 0.007,0 c 0,0.66143 0.27311,1.2659 0.7108,1.70358 0.43768,0.4375 1.04197,0.71062 1.70358,0.71062 l 4.87037,0 c 0.66198,0 1.2659,-0.26997 1.70358,-0.70396 l 0.007,-0.007 c 0.43398,-0.43768 0.70395,-1.04104 0.70395,-1.70358 l 0,-13.76384 c 0,-1.00647 0.81601,-1.82248 1.82248,-1.82248 1.00629,0 1.82248,0.81601 1.82248,1.82248 l 0,13.76384 c 0,1.66253 -0.68195,3.17584 -1.77902,4.27347 l -0.007,0.007 c -1.09763,1.09708 -2.61131,1.77884 -4.27347,1.77884 l -4.87037,0 c -1.66734,0 -3.18324,-0.68176 -4.28032,-1.77884 -1.09707,-1.09707 -1.77902,-2.61297 -1.77902,-4.28032 l 0.007,0 -0.0303,-4.75627 -0.0294,-4.59633 c -0.006,-0.0575 -0.009,-0.1152 -0.009,-0.17456 0,-0.66142 -0.27293,-1.26571 -0.71061,-1.7034 -0.43769,-0.43768 -1.04216,-0.71079 -1.70359,-0.71079 l -6.74425,0 c -0.63055,0 -1.20765,0.24426 -1.6385,0.64201 l -0.0651,0.0688 c -0.43769,0.43769 -0.7108,1.04198 -0.7108,1.7034 l 0,13.76384 z"
       id="path4232" />
    <path
       style="fill:#ffffff;fill-rule:evenodd"
       d="m 109.73603,374.47053 c 0,-1.27625 1.03513,-2.31157 2.31157,-2.31157 1.27626,0 2.31139,1.03532 2.31139,2.31157 l 0,22.8291 c 0,1.27644 -1.03513,2.31157 -2.31139,2.31157 -1.27644,0 -2.31157,-1.03513 -2.31157,-2.31157 l 0,-22.8291 z"
       id="path4891" />
  </g>
</svg>
